G04 #@! TF.GenerationSoftware,KiCad,Pcbnew,5.0.0-fee4fd1~65~ubuntu17.10.1*
G04 #@! TF.CreationDate,2018-11-13T13:10:49-08:00*
G04 #@! TF.ProjectId,instrumentationamp,696E737472756D656E746174696F6E61,rev?*
G04 #@! TF.SameCoordinates,Original*
G04 #@! TF.FileFunction,Soldermask,Top*
G04 #@! TF.FilePolarity,Negative*
%FSLAX46Y46*%
G04 Gerber Fmt 4.6, Leading zero omitted, Abs format (unit mm)*
G04 Created by KiCad (PCBNEW 5.0.0-fee4fd1~65~ubuntu17.10.1) date Tue Nov 13 13:10:49 2018*
%MOMM*%
%LPD*%
G01*
G04 APERTURE LIST*
%ADD10C,0.100000*%
%ADD11C,1.000000*%
%ADD12R,1.400000X1.400000*%
%ADD13C,1.275000*%
G04 APERTURE END LIST*
D10*
G04 #@! TO.C,R6*
G36*
X104814504Y-73561204D02*
X104838773Y-73564804D01*
X104862571Y-73570765D01*
X104885671Y-73579030D01*
X104907849Y-73589520D01*
X104928893Y-73602133D01*
X104948598Y-73616747D01*
X104966777Y-73633223D01*
X104983253Y-73651402D01*
X104997867Y-73671107D01*
X105010480Y-73692151D01*
X105020970Y-73714329D01*
X105029235Y-73737429D01*
X105035196Y-73761227D01*
X105038796Y-73785496D01*
X105040000Y-73810000D01*
X105040000Y-74310000D01*
X105038796Y-74334504D01*
X105035196Y-74358773D01*
X105029235Y-74382571D01*
X105020970Y-74405671D01*
X105010480Y-74427849D01*
X104997867Y-74448893D01*
X104983253Y-74468598D01*
X104966777Y-74486777D01*
X104948598Y-74503253D01*
X104928893Y-74517867D01*
X104907849Y-74530480D01*
X104885671Y-74540970D01*
X104862571Y-74549235D01*
X104838773Y-74555196D01*
X104814504Y-74558796D01*
X104790000Y-74560000D01*
X104250000Y-74560000D01*
X104225496Y-74558796D01*
X104201227Y-74555196D01*
X104177429Y-74549235D01*
X104154329Y-74540970D01*
X104132151Y-74530480D01*
X104111107Y-74517867D01*
X104091402Y-74503253D01*
X104073223Y-74486777D01*
X104056747Y-74468598D01*
X104042133Y-74448893D01*
X104029520Y-74427849D01*
X104019030Y-74405671D01*
X104010765Y-74382571D01*
X104004804Y-74358773D01*
X104001204Y-74334504D01*
X104000000Y-74310000D01*
X104000000Y-73810000D01*
X104001204Y-73785496D01*
X104004804Y-73761227D01*
X104010765Y-73737429D01*
X104019030Y-73714329D01*
X104029520Y-73692151D01*
X104042133Y-73671107D01*
X104056747Y-73651402D01*
X104073223Y-73633223D01*
X104091402Y-73616747D01*
X104111107Y-73602133D01*
X104132151Y-73589520D01*
X104154329Y-73579030D01*
X104177429Y-73570765D01*
X104201227Y-73564804D01*
X104225496Y-73561204D01*
X104250000Y-73560000D01*
X104790000Y-73560000D01*
X104814504Y-73561204D01*
X104814504Y-73561204D01*
G37*
D11*
X104520000Y-74060000D03*
D10*
G36*
X104814504Y-72601204D02*
X104838773Y-72604804D01*
X104862571Y-72610765D01*
X104885671Y-72619030D01*
X104907849Y-72629520D01*
X104928893Y-72642133D01*
X104948598Y-72656747D01*
X104966777Y-72673223D01*
X104983253Y-72691402D01*
X104997867Y-72711107D01*
X105010480Y-72732151D01*
X105020970Y-72754329D01*
X105029235Y-72777429D01*
X105035196Y-72801227D01*
X105038796Y-72825496D01*
X105040000Y-72850000D01*
X105040000Y-73350000D01*
X105038796Y-73374504D01*
X105035196Y-73398773D01*
X105029235Y-73422571D01*
X105020970Y-73445671D01*
X105010480Y-73467849D01*
X104997867Y-73488893D01*
X104983253Y-73508598D01*
X104966777Y-73526777D01*
X104948598Y-73543253D01*
X104928893Y-73557867D01*
X104907849Y-73570480D01*
X104885671Y-73580970D01*
X104862571Y-73589235D01*
X104838773Y-73595196D01*
X104814504Y-73598796D01*
X104790000Y-73600000D01*
X104250000Y-73600000D01*
X104225496Y-73598796D01*
X104201227Y-73595196D01*
X104177429Y-73589235D01*
X104154329Y-73580970D01*
X104132151Y-73570480D01*
X104111107Y-73557867D01*
X104091402Y-73543253D01*
X104073223Y-73526777D01*
X104056747Y-73508598D01*
X104042133Y-73488893D01*
X104029520Y-73467849D01*
X104019030Y-73445671D01*
X104010765Y-73422571D01*
X104004804Y-73398773D01*
X104001204Y-73374504D01*
X104000000Y-73350000D01*
X104000000Y-72850000D01*
X104001204Y-72825496D01*
X104004804Y-72801227D01*
X104010765Y-72777429D01*
X104019030Y-72754329D01*
X104029520Y-72732151D01*
X104042133Y-72711107D01*
X104056747Y-72691402D01*
X104073223Y-72673223D01*
X104091402Y-72656747D01*
X104111107Y-72642133D01*
X104132151Y-72629520D01*
X104154329Y-72619030D01*
X104177429Y-72610765D01*
X104201227Y-72604804D01*
X104225496Y-72601204D01*
X104250000Y-72600000D01*
X104790000Y-72600000D01*
X104814504Y-72601204D01*
X104814504Y-72601204D01*
G37*
D11*
X104520000Y-73100000D03*
G04 #@! TD*
D10*
G04 #@! TO.C,C2*
G36*
X112204504Y-72561204D02*
X112228773Y-72564804D01*
X112252571Y-72570765D01*
X112275671Y-72579030D01*
X112297849Y-72589520D01*
X112318893Y-72602133D01*
X112338598Y-72616747D01*
X112356777Y-72633223D01*
X112373253Y-72651402D01*
X112387867Y-72671107D01*
X112400480Y-72692151D01*
X112410970Y-72714329D01*
X112419235Y-72737429D01*
X112425196Y-72761227D01*
X112428796Y-72785496D01*
X112430000Y-72810000D01*
X112430000Y-73310000D01*
X112428796Y-73334504D01*
X112425196Y-73358773D01*
X112419235Y-73382571D01*
X112410970Y-73405671D01*
X112400480Y-73427849D01*
X112387867Y-73448893D01*
X112373253Y-73468598D01*
X112356777Y-73486777D01*
X112338598Y-73503253D01*
X112318893Y-73517867D01*
X112297849Y-73530480D01*
X112275671Y-73540970D01*
X112252571Y-73549235D01*
X112228773Y-73555196D01*
X112204504Y-73558796D01*
X112180000Y-73560000D01*
X111640000Y-73560000D01*
X111615496Y-73558796D01*
X111591227Y-73555196D01*
X111567429Y-73549235D01*
X111544329Y-73540970D01*
X111522151Y-73530480D01*
X111501107Y-73517867D01*
X111481402Y-73503253D01*
X111463223Y-73486777D01*
X111446747Y-73468598D01*
X111432133Y-73448893D01*
X111419520Y-73427849D01*
X111409030Y-73405671D01*
X111400765Y-73382571D01*
X111394804Y-73358773D01*
X111391204Y-73334504D01*
X111390000Y-73310000D01*
X111390000Y-72810000D01*
X111391204Y-72785496D01*
X111394804Y-72761227D01*
X111400765Y-72737429D01*
X111409030Y-72714329D01*
X111419520Y-72692151D01*
X111432133Y-72671107D01*
X111446747Y-72651402D01*
X111463223Y-72633223D01*
X111481402Y-72616747D01*
X111501107Y-72602133D01*
X111522151Y-72589520D01*
X111544329Y-72579030D01*
X111567429Y-72570765D01*
X111591227Y-72564804D01*
X111615496Y-72561204D01*
X111640000Y-72560000D01*
X112180000Y-72560000D01*
X112204504Y-72561204D01*
X112204504Y-72561204D01*
G37*
D11*
X111910000Y-73060000D03*
D10*
G36*
X112204504Y-73521204D02*
X112228773Y-73524804D01*
X112252571Y-73530765D01*
X112275671Y-73539030D01*
X112297849Y-73549520D01*
X112318893Y-73562133D01*
X112338598Y-73576747D01*
X112356777Y-73593223D01*
X112373253Y-73611402D01*
X112387867Y-73631107D01*
X112400480Y-73652151D01*
X112410970Y-73674329D01*
X112419235Y-73697429D01*
X112425196Y-73721227D01*
X112428796Y-73745496D01*
X112430000Y-73770000D01*
X112430000Y-74270000D01*
X112428796Y-74294504D01*
X112425196Y-74318773D01*
X112419235Y-74342571D01*
X112410970Y-74365671D01*
X112400480Y-74387849D01*
X112387867Y-74408893D01*
X112373253Y-74428598D01*
X112356777Y-74446777D01*
X112338598Y-74463253D01*
X112318893Y-74477867D01*
X112297849Y-74490480D01*
X112275671Y-74500970D01*
X112252571Y-74509235D01*
X112228773Y-74515196D01*
X112204504Y-74518796D01*
X112180000Y-74520000D01*
X111640000Y-74520000D01*
X111615496Y-74518796D01*
X111591227Y-74515196D01*
X111567429Y-74509235D01*
X111544329Y-74500970D01*
X111522151Y-74490480D01*
X111501107Y-74477867D01*
X111481402Y-74463253D01*
X111463223Y-74446777D01*
X111446747Y-74428598D01*
X111432133Y-74408893D01*
X111419520Y-74387849D01*
X111409030Y-74365671D01*
X111400765Y-74342571D01*
X111394804Y-74318773D01*
X111391204Y-74294504D01*
X111390000Y-74270000D01*
X111390000Y-73770000D01*
X111391204Y-73745496D01*
X111394804Y-73721227D01*
X111400765Y-73697429D01*
X111409030Y-73674329D01*
X111419520Y-73652151D01*
X111432133Y-73631107D01*
X111446747Y-73611402D01*
X111463223Y-73593223D01*
X111481402Y-73576747D01*
X111501107Y-73562133D01*
X111522151Y-73549520D01*
X111544329Y-73539030D01*
X111567429Y-73530765D01*
X111591227Y-73524804D01*
X111615496Y-73521204D01*
X111640000Y-73520000D01*
X112180000Y-73520000D01*
X112204504Y-73521204D01*
X112204504Y-73521204D01*
G37*
D11*
X111910000Y-74020000D03*
G04 #@! TD*
D10*
G04 #@! TO.C,R11*
G36*
X108944504Y-73561204D02*
X108968773Y-73564804D01*
X108992571Y-73570765D01*
X109015671Y-73579030D01*
X109037849Y-73589520D01*
X109058893Y-73602133D01*
X109078598Y-73616747D01*
X109096777Y-73633223D01*
X109113253Y-73651402D01*
X109127867Y-73671107D01*
X109140480Y-73692151D01*
X109150970Y-73714329D01*
X109159235Y-73737429D01*
X109165196Y-73761227D01*
X109168796Y-73785496D01*
X109170000Y-73810000D01*
X109170000Y-74350000D01*
X109168796Y-74374504D01*
X109165196Y-74398773D01*
X109159235Y-74422571D01*
X109150970Y-74445671D01*
X109140480Y-74467849D01*
X109127867Y-74488893D01*
X109113253Y-74508598D01*
X109096777Y-74526777D01*
X109078598Y-74543253D01*
X109058893Y-74557867D01*
X109037849Y-74570480D01*
X109015671Y-74580970D01*
X108992571Y-74589235D01*
X108968773Y-74595196D01*
X108944504Y-74598796D01*
X108920000Y-74600000D01*
X108420000Y-74600000D01*
X108395496Y-74598796D01*
X108371227Y-74595196D01*
X108347429Y-74589235D01*
X108324329Y-74580970D01*
X108302151Y-74570480D01*
X108281107Y-74557867D01*
X108261402Y-74543253D01*
X108243223Y-74526777D01*
X108226747Y-74508598D01*
X108212133Y-74488893D01*
X108199520Y-74467849D01*
X108189030Y-74445671D01*
X108180765Y-74422571D01*
X108174804Y-74398773D01*
X108171204Y-74374504D01*
X108170000Y-74350000D01*
X108170000Y-73810000D01*
X108171204Y-73785496D01*
X108174804Y-73761227D01*
X108180765Y-73737429D01*
X108189030Y-73714329D01*
X108199520Y-73692151D01*
X108212133Y-73671107D01*
X108226747Y-73651402D01*
X108243223Y-73633223D01*
X108261402Y-73616747D01*
X108281107Y-73602133D01*
X108302151Y-73589520D01*
X108324329Y-73579030D01*
X108347429Y-73570765D01*
X108371227Y-73564804D01*
X108395496Y-73561204D01*
X108420000Y-73560000D01*
X108920000Y-73560000D01*
X108944504Y-73561204D01*
X108944504Y-73561204D01*
G37*
D11*
X108670000Y-74080000D03*
D10*
G36*
X107984504Y-73561204D02*
X108008773Y-73564804D01*
X108032571Y-73570765D01*
X108055671Y-73579030D01*
X108077849Y-73589520D01*
X108098893Y-73602133D01*
X108118598Y-73616747D01*
X108136777Y-73633223D01*
X108153253Y-73651402D01*
X108167867Y-73671107D01*
X108180480Y-73692151D01*
X108190970Y-73714329D01*
X108199235Y-73737429D01*
X108205196Y-73761227D01*
X108208796Y-73785496D01*
X108210000Y-73810000D01*
X108210000Y-74350000D01*
X108208796Y-74374504D01*
X108205196Y-74398773D01*
X108199235Y-74422571D01*
X108190970Y-74445671D01*
X108180480Y-74467849D01*
X108167867Y-74488893D01*
X108153253Y-74508598D01*
X108136777Y-74526777D01*
X108118598Y-74543253D01*
X108098893Y-74557867D01*
X108077849Y-74570480D01*
X108055671Y-74580970D01*
X108032571Y-74589235D01*
X108008773Y-74595196D01*
X107984504Y-74598796D01*
X107960000Y-74600000D01*
X107460000Y-74600000D01*
X107435496Y-74598796D01*
X107411227Y-74595196D01*
X107387429Y-74589235D01*
X107364329Y-74580970D01*
X107342151Y-74570480D01*
X107321107Y-74557867D01*
X107301402Y-74543253D01*
X107283223Y-74526777D01*
X107266747Y-74508598D01*
X107252133Y-74488893D01*
X107239520Y-74467849D01*
X107229030Y-74445671D01*
X107220765Y-74422571D01*
X107214804Y-74398773D01*
X107211204Y-74374504D01*
X107210000Y-74350000D01*
X107210000Y-73810000D01*
X107211204Y-73785496D01*
X107214804Y-73761227D01*
X107220765Y-73737429D01*
X107229030Y-73714329D01*
X107239520Y-73692151D01*
X107252133Y-73671107D01*
X107266747Y-73651402D01*
X107283223Y-73633223D01*
X107301402Y-73616747D01*
X107321107Y-73602133D01*
X107342151Y-73589520D01*
X107364329Y-73579030D01*
X107387429Y-73570765D01*
X107411227Y-73564804D01*
X107435496Y-73561204D01*
X107460000Y-73560000D01*
X107960000Y-73560000D01*
X107984504Y-73561204D01*
X107984504Y-73561204D01*
G37*
D11*
X107710000Y-74080000D03*
G04 #@! TD*
D10*
G04 #@! TO.C,R12*
G36*
X106844504Y-75231204D02*
X106868773Y-75234804D01*
X106892571Y-75240765D01*
X106915671Y-75249030D01*
X106937849Y-75259520D01*
X106958893Y-75272133D01*
X106978598Y-75286747D01*
X106996777Y-75303223D01*
X107013253Y-75321402D01*
X107027867Y-75341107D01*
X107040480Y-75362151D01*
X107050970Y-75384329D01*
X107059235Y-75407429D01*
X107065196Y-75431227D01*
X107068796Y-75455496D01*
X107070000Y-75480000D01*
X107070000Y-76020000D01*
X107068796Y-76044504D01*
X107065196Y-76068773D01*
X107059235Y-76092571D01*
X107050970Y-76115671D01*
X107040480Y-76137849D01*
X107027867Y-76158893D01*
X107013253Y-76178598D01*
X106996777Y-76196777D01*
X106978598Y-76213253D01*
X106958893Y-76227867D01*
X106937849Y-76240480D01*
X106915671Y-76250970D01*
X106892571Y-76259235D01*
X106868773Y-76265196D01*
X106844504Y-76268796D01*
X106820000Y-76270000D01*
X106320000Y-76270000D01*
X106295496Y-76268796D01*
X106271227Y-76265196D01*
X106247429Y-76259235D01*
X106224329Y-76250970D01*
X106202151Y-76240480D01*
X106181107Y-76227867D01*
X106161402Y-76213253D01*
X106143223Y-76196777D01*
X106126747Y-76178598D01*
X106112133Y-76158893D01*
X106099520Y-76137849D01*
X106089030Y-76115671D01*
X106080765Y-76092571D01*
X106074804Y-76068773D01*
X106071204Y-76044504D01*
X106070000Y-76020000D01*
X106070000Y-75480000D01*
X106071204Y-75455496D01*
X106074804Y-75431227D01*
X106080765Y-75407429D01*
X106089030Y-75384329D01*
X106099520Y-75362151D01*
X106112133Y-75341107D01*
X106126747Y-75321402D01*
X106143223Y-75303223D01*
X106161402Y-75286747D01*
X106181107Y-75272133D01*
X106202151Y-75259520D01*
X106224329Y-75249030D01*
X106247429Y-75240765D01*
X106271227Y-75234804D01*
X106295496Y-75231204D01*
X106320000Y-75230000D01*
X106820000Y-75230000D01*
X106844504Y-75231204D01*
X106844504Y-75231204D01*
G37*
D11*
X106570000Y-75750000D03*
D10*
G36*
X105884504Y-75231204D02*
X105908773Y-75234804D01*
X105932571Y-75240765D01*
X105955671Y-75249030D01*
X105977849Y-75259520D01*
X105998893Y-75272133D01*
X106018598Y-75286747D01*
X106036777Y-75303223D01*
X106053253Y-75321402D01*
X106067867Y-75341107D01*
X106080480Y-75362151D01*
X106090970Y-75384329D01*
X106099235Y-75407429D01*
X106105196Y-75431227D01*
X106108796Y-75455496D01*
X106110000Y-75480000D01*
X106110000Y-76020000D01*
X106108796Y-76044504D01*
X106105196Y-76068773D01*
X106099235Y-76092571D01*
X106090970Y-76115671D01*
X106080480Y-76137849D01*
X106067867Y-76158893D01*
X106053253Y-76178598D01*
X106036777Y-76196777D01*
X106018598Y-76213253D01*
X105998893Y-76227867D01*
X105977849Y-76240480D01*
X105955671Y-76250970D01*
X105932571Y-76259235D01*
X105908773Y-76265196D01*
X105884504Y-76268796D01*
X105860000Y-76270000D01*
X105360000Y-76270000D01*
X105335496Y-76268796D01*
X105311227Y-76265196D01*
X105287429Y-76259235D01*
X105264329Y-76250970D01*
X105242151Y-76240480D01*
X105221107Y-76227867D01*
X105201402Y-76213253D01*
X105183223Y-76196777D01*
X105166747Y-76178598D01*
X105152133Y-76158893D01*
X105139520Y-76137849D01*
X105129030Y-76115671D01*
X105120765Y-76092571D01*
X105114804Y-76068773D01*
X105111204Y-76044504D01*
X105110000Y-76020000D01*
X105110000Y-75480000D01*
X105111204Y-75455496D01*
X105114804Y-75431227D01*
X105120765Y-75407429D01*
X105129030Y-75384329D01*
X105139520Y-75362151D01*
X105152133Y-75341107D01*
X105166747Y-75321402D01*
X105183223Y-75303223D01*
X105201402Y-75286747D01*
X105221107Y-75272133D01*
X105242151Y-75259520D01*
X105264329Y-75249030D01*
X105287429Y-75240765D01*
X105311227Y-75234804D01*
X105335496Y-75231204D01*
X105360000Y-75230000D01*
X105860000Y-75230000D01*
X105884504Y-75231204D01*
X105884504Y-75231204D01*
G37*
D11*
X105610000Y-75750000D03*
G04 #@! TD*
D10*
G04 #@! TO.C,R13*
G36*
X111189505Y-72566203D02*
X111213774Y-72569803D01*
X111237572Y-72575764D01*
X111260672Y-72584029D01*
X111282850Y-72594519D01*
X111303894Y-72607132D01*
X111323599Y-72621746D01*
X111341778Y-72638222D01*
X111358254Y-72656401D01*
X111372868Y-72676106D01*
X111385481Y-72697150D01*
X111395971Y-72719328D01*
X111404236Y-72742428D01*
X111410197Y-72766226D01*
X111413797Y-72790495D01*
X111415001Y-72814999D01*
X111415001Y-73314999D01*
X111413797Y-73339503D01*
X111410197Y-73363772D01*
X111404236Y-73387570D01*
X111395971Y-73410670D01*
X111385481Y-73432848D01*
X111372868Y-73453892D01*
X111358254Y-73473597D01*
X111341778Y-73491776D01*
X111323599Y-73508252D01*
X111303894Y-73522866D01*
X111282850Y-73535479D01*
X111260672Y-73545969D01*
X111237572Y-73554234D01*
X111213774Y-73560195D01*
X111189505Y-73563795D01*
X111165001Y-73564999D01*
X110625001Y-73564999D01*
X110600497Y-73563795D01*
X110576228Y-73560195D01*
X110552430Y-73554234D01*
X110529330Y-73545969D01*
X110507152Y-73535479D01*
X110486108Y-73522866D01*
X110466403Y-73508252D01*
X110448224Y-73491776D01*
X110431748Y-73473597D01*
X110417134Y-73453892D01*
X110404521Y-73432848D01*
X110394031Y-73410670D01*
X110385766Y-73387570D01*
X110379805Y-73363772D01*
X110376205Y-73339503D01*
X110375001Y-73314999D01*
X110375001Y-72814999D01*
X110376205Y-72790495D01*
X110379805Y-72766226D01*
X110385766Y-72742428D01*
X110394031Y-72719328D01*
X110404521Y-72697150D01*
X110417134Y-72676106D01*
X110431748Y-72656401D01*
X110448224Y-72638222D01*
X110466403Y-72621746D01*
X110486108Y-72607132D01*
X110507152Y-72594519D01*
X110529330Y-72584029D01*
X110552430Y-72575764D01*
X110576228Y-72569803D01*
X110600497Y-72566203D01*
X110625001Y-72564999D01*
X111165001Y-72564999D01*
X111189505Y-72566203D01*
X111189505Y-72566203D01*
G37*
D11*
X110895001Y-73064999D03*
D10*
G36*
X111189505Y-73526203D02*
X111213774Y-73529803D01*
X111237572Y-73535764D01*
X111260672Y-73544029D01*
X111282850Y-73554519D01*
X111303894Y-73567132D01*
X111323599Y-73581746D01*
X111341778Y-73598222D01*
X111358254Y-73616401D01*
X111372868Y-73636106D01*
X111385481Y-73657150D01*
X111395971Y-73679328D01*
X111404236Y-73702428D01*
X111410197Y-73726226D01*
X111413797Y-73750495D01*
X111415001Y-73774999D01*
X111415001Y-74274999D01*
X111413797Y-74299503D01*
X111410197Y-74323772D01*
X111404236Y-74347570D01*
X111395971Y-74370670D01*
X111385481Y-74392848D01*
X111372868Y-74413892D01*
X111358254Y-74433597D01*
X111341778Y-74451776D01*
X111323599Y-74468252D01*
X111303894Y-74482866D01*
X111282850Y-74495479D01*
X111260672Y-74505969D01*
X111237572Y-74514234D01*
X111213774Y-74520195D01*
X111189505Y-74523795D01*
X111165001Y-74524999D01*
X110625001Y-74524999D01*
X110600497Y-74523795D01*
X110576228Y-74520195D01*
X110552430Y-74514234D01*
X110529330Y-74505969D01*
X110507152Y-74495479D01*
X110486108Y-74482866D01*
X110466403Y-74468252D01*
X110448224Y-74451776D01*
X110431748Y-74433597D01*
X110417134Y-74413892D01*
X110404521Y-74392848D01*
X110394031Y-74370670D01*
X110385766Y-74347570D01*
X110379805Y-74323772D01*
X110376205Y-74299503D01*
X110375001Y-74274999D01*
X110375001Y-73774999D01*
X110376205Y-73750495D01*
X110379805Y-73726226D01*
X110385766Y-73702428D01*
X110394031Y-73679328D01*
X110404521Y-73657150D01*
X110417134Y-73636106D01*
X110431748Y-73616401D01*
X110448224Y-73598222D01*
X110466403Y-73581746D01*
X110486108Y-73567132D01*
X110507152Y-73554519D01*
X110529330Y-73544029D01*
X110552430Y-73535764D01*
X110576228Y-73529803D01*
X110600497Y-73526203D01*
X110625001Y-73524999D01*
X111165001Y-73524999D01*
X111189505Y-73526203D01*
X111189505Y-73526203D01*
G37*
D11*
X110895001Y-74024999D03*
G04 #@! TD*
D12*
G04 #@! TO.C,TP4*
X104800000Y-77230000D03*
G04 #@! TD*
D10*
G04 #@! TO.C,R10*
G36*
X108834504Y-75241204D02*
X108858773Y-75244804D01*
X108882571Y-75250765D01*
X108905671Y-75259030D01*
X108927849Y-75269520D01*
X108948893Y-75282133D01*
X108968598Y-75296747D01*
X108986777Y-75313223D01*
X109003253Y-75331402D01*
X109017867Y-75351107D01*
X109030480Y-75372151D01*
X109040970Y-75394329D01*
X109049235Y-75417429D01*
X109055196Y-75441227D01*
X109058796Y-75465496D01*
X109060000Y-75490000D01*
X109060000Y-76030000D01*
X109058796Y-76054504D01*
X109055196Y-76078773D01*
X109049235Y-76102571D01*
X109040970Y-76125671D01*
X109030480Y-76147849D01*
X109017867Y-76168893D01*
X109003253Y-76188598D01*
X108986777Y-76206777D01*
X108968598Y-76223253D01*
X108948893Y-76237867D01*
X108927849Y-76250480D01*
X108905671Y-76260970D01*
X108882571Y-76269235D01*
X108858773Y-76275196D01*
X108834504Y-76278796D01*
X108810000Y-76280000D01*
X108310000Y-76280000D01*
X108285496Y-76278796D01*
X108261227Y-76275196D01*
X108237429Y-76269235D01*
X108214329Y-76260970D01*
X108192151Y-76250480D01*
X108171107Y-76237867D01*
X108151402Y-76223253D01*
X108133223Y-76206777D01*
X108116747Y-76188598D01*
X108102133Y-76168893D01*
X108089520Y-76147849D01*
X108079030Y-76125671D01*
X108070765Y-76102571D01*
X108064804Y-76078773D01*
X108061204Y-76054504D01*
X108060000Y-76030000D01*
X108060000Y-75490000D01*
X108061204Y-75465496D01*
X108064804Y-75441227D01*
X108070765Y-75417429D01*
X108079030Y-75394329D01*
X108089520Y-75372151D01*
X108102133Y-75351107D01*
X108116747Y-75331402D01*
X108133223Y-75313223D01*
X108151402Y-75296747D01*
X108171107Y-75282133D01*
X108192151Y-75269520D01*
X108214329Y-75259030D01*
X108237429Y-75250765D01*
X108261227Y-75244804D01*
X108285496Y-75241204D01*
X108310000Y-75240000D01*
X108810000Y-75240000D01*
X108834504Y-75241204D01*
X108834504Y-75241204D01*
G37*
D11*
X108560000Y-75760000D03*
D10*
G36*
X107874504Y-75241204D02*
X107898773Y-75244804D01*
X107922571Y-75250765D01*
X107945671Y-75259030D01*
X107967849Y-75269520D01*
X107988893Y-75282133D01*
X108008598Y-75296747D01*
X108026777Y-75313223D01*
X108043253Y-75331402D01*
X108057867Y-75351107D01*
X108070480Y-75372151D01*
X108080970Y-75394329D01*
X108089235Y-75417429D01*
X108095196Y-75441227D01*
X108098796Y-75465496D01*
X108100000Y-75490000D01*
X108100000Y-76030000D01*
X108098796Y-76054504D01*
X108095196Y-76078773D01*
X108089235Y-76102571D01*
X108080970Y-76125671D01*
X108070480Y-76147849D01*
X108057867Y-76168893D01*
X108043253Y-76188598D01*
X108026777Y-76206777D01*
X108008598Y-76223253D01*
X107988893Y-76237867D01*
X107967849Y-76250480D01*
X107945671Y-76260970D01*
X107922571Y-76269235D01*
X107898773Y-76275196D01*
X107874504Y-76278796D01*
X107850000Y-76280000D01*
X107350000Y-76280000D01*
X107325496Y-76278796D01*
X107301227Y-76275196D01*
X107277429Y-76269235D01*
X107254329Y-76260970D01*
X107232151Y-76250480D01*
X107211107Y-76237867D01*
X107191402Y-76223253D01*
X107173223Y-76206777D01*
X107156747Y-76188598D01*
X107142133Y-76168893D01*
X107129520Y-76147849D01*
X107119030Y-76125671D01*
X107110765Y-76102571D01*
X107104804Y-76078773D01*
X107101204Y-76054504D01*
X107100000Y-76030000D01*
X107100000Y-75490000D01*
X107101204Y-75465496D01*
X107104804Y-75441227D01*
X107110765Y-75417429D01*
X107119030Y-75394329D01*
X107129520Y-75372151D01*
X107142133Y-75351107D01*
X107156747Y-75331402D01*
X107173223Y-75313223D01*
X107191402Y-75296747D01*
X107211107Y-75282133D01*
X107232151Y-75269520D01*
X107254329Y-75259030D01*
X107277429Y-75250765D01*
X107301227Y-75244804D01*
X107325496Y-75241204D01*
X107350000Y-75240000D01*
X107850000Y-75240000D01*
X107874504Y-75241204D01*
X107874504Y-75241204D01*
G37*
D11*
X107600000Y-75760000D03*
G04 #@! TD*
D10*
G04 #@! TO.C,C1*
G36*
X111002493Y-76566535D02*
X111033435Y-76571125D01*
X111063778Y-76578725D01*
X111093230Y-76589263D01*
X111121508Y-76602638D01*
X111148338Y-76618719D01*
X111173463Y-76637353D01*
X111196640Y-76658360D01*
X111217647Y-76681537D01*
X111236281Y-76706662D01*
X111252362Y-76733492D01*
X111265737Y-76761770D01*
X111276275Y-76791222D01*
X111283875Y-76821565D01*
X111288465Y-76852507D01*
X111290000Y-76883750D01*
X111290000Y-77596250D01*
X111288465Y-77627493D01*
X111283875Y-77658435D01*
X111276275Y-77688778D01*
X111265737Y-77718230D01*
X111252362Y-77746508D01*
X111236281Y-77773338D01*
X111217647Y-77798463D01*
X111196640Y-77821640D01*
X111173463Y-77842647D01*
X111148338Y-77861281D01*
X111121508Y-77877362D01*
X111093230Y-77890737D01*
X111063778Y-77901275D01*
X111033435Y-77908875D01*
X111002493Y-77913465D01*
X110971250Y-77915000D01*
X110333750Y-77915000D01*
X110302507Y-77913465D01*
X110271565Y-77908875D01*
X110241222Y-77901275D01*
X110211770Y-77890737D01*
X110183492Y-77877362D01*
X110156662Y-77861281D01*
X110131537Y-77842647D01*
X110108360Y-77821640D01*
X110087353Y-77798463D01*
X110068719Y-77773338D01*
X110052638Y-77746508D01*
X110039263Y-77718230D01*
X110028725Y-77688778D01*
X110021125Y-77658435D01*
X110016535Y-77627493D01*
X110015000Y-77596250D01*
X110015000Y-76883750D01*
X110016535Y-76852507D01*
X110021125Y-76821565D01*
X110028725Y-76791222D01*
X110039263Y-76761770D01*
X110052638Y-76733492D01*
X110068719Y-76706662D01*
X110087353Y-76681537D01*
X110108360Y-76658360D01*
X110131537Y-76637353D01*
X110156662Y-76618719D01*
X110183492Y-76602638D01*
X110211770Y-76589263D01*
X110241222Y-76578725D01*
X110271565Y-76571125D01*
X110302507Y-76566535D01*
X110333750Y-76565000D01*
X110971250Y-76565000D01*
X111002493Y-76566535D01*
X111002493Y-76566535D01*
G37*
D13*
X110652500Y-77240000D03*
D10*
G36*
X112577493Y-76566535D02*
X112608435Y-76571125D01*
X112638778Y-76578725D01*
X112668230Y-76589263D01*
X112696508Y-76602638D01*
X112723338Y-76618719D01*
X112748463Y-76637353D01*
X112771640Y-76658360D01*
X112792647Y-76681537D01*
X112811281Y-76706662D01*
X112827362Y-76733492D01*
X112840737Y-76761770D01*
X112851275Y-76791222D01*
X112858875Y-76821565D01*
X112863465Y-76852507D01*
X112865000Y-76883750D01*
X112865000Y-77596250D01*
X112863465Y-77627493D01*
X112858875Y-77658435D01*
X112851275Y-77688778D01*
X112840737Y-77718230D01*
X112827362Y-77746508D01*
X112811281Y-77773338D01*
X112792647Y-77798463D01*
X112771640Y-77821640D01*
X112748463Y-77842647D01*
X112723338Y-77861281D01*
X112696508Y-77877362D01*
X112668230Y-77890737D01*
X112638778Y-77901275D01*
X112608435Y-77908875D01*
X112577493Y-77913465D01*
X112546250Y-77915000D01*
X111908750Y-77915000D01*
X111877507Y-77913465D01*
X111846565Y-77908875D01*
X111816222Y-77901275D01*
X111786770Y-77890737D01*
X111758492Y-77877362D01*
X111731662Y-77861281D01*
X111706537Y-77842647D01*
X111683360Y-77821640D01*
X111662353Y-77798463D01*
X111643719Y-77773338D01*
X111627638Y-77746508D01*
X111614263Y-77718230D01*
X111603725Y-77688778D01*
X111596125Y-77658435D01*
X111591535Y-77627493D01*
X111590000Y-77596250D01*
X111590000Y-76883750D01*
X111591535Y-76852507D01*
X111596125Y-76821565D01*
X111603725Y-76791222D01*
X111614263Y-76761770D01*
X111627638Y-76733492D01*
X111643719Y-76706662D01*
X111662353Y-76681537D01*
X111683360Y-76658360D01*
X111706537Y-76637353D01*
X111731662Y-76618719D01*
X111758492Y-76602638D01*
X111786770Y-76589263D01*
X111816222Y-76578725D01*
X111846565Y-76571125D01*
X111877507Y-76566535D01*
X111908750Y-76565000D01*
X112546250Y-76565000D01*
X112577493Y-76566535D01*
X112577493Y-76566535D01*
G37*
D13*
X112227500Y-77240000D03*
G04 #@! TD*
D10*
G04 #@! TO.C,R1*
G36*
X109314504Y-70231204D02*
X109338773Y-70234804D01*
X109362571Y-70240765D01*
X109385671Y-70249030D01*
X109407849Y-70259520D01*
X109428893Y-70272133D01*
X109448598Y-70286747D01*
X109466777Y-70303223D01*
X109483253Y-70321402D01*
X109497867Y-70341107D01*
X109510480Y-70362151D01*
X109520970Y-70384329D01*
X109529235Y-70407429D01*
X109535196Y-70431227D01*
X109538796Y-70455496D01*
X109540000Y-70480000D01*
X109540000Y-71020000D01*
X109538796Y-71044504D01*
X109535196Y-71068773D01*
X109529235Y-71092571D01*
X109520970Y-71115671D01*
X109510480Y-71137849D01*
X109497867Y-71158893D01*
X109483253Y-71178598D01*
X109466777Y-71196777D01*
X109448598Y-71213253D01*
X109428893Y-71227867D01*
X109407849Y-71240480D01*
X109385671Y-71250970D01*
X109362571Y-71259235D01*
X109338773Y-71265196D01*
X109314504Y-71268796D01*
X109290000Y-71270000D01*
X108790000Y-71270000D01*
X108765496Y-71268796D01*
X108741227Y-71265196D01*
X108717429Y-71259235D01*
X108694329Y-71250970D01*
X108672151Y-71240480D01*
X108651107Y-71227867D01*
X108631402Y-71213253D01*
X108613223Y-71196777D01*
X108596747Y-71178598D01*
X108582133Y-71158893D01*
X108569520Y-71137849D01*
X108559030Y-71115671D01*
X108550765Y-71092571D01*
X108544804Y-71068773D01*
X108541204Y-71044504D01*
X108540000Y-71020000D01*
X108540000Y-70480000D01*
X108541204Y-70455496D01*
X108544804Y-70431227D01*
X108550765Y-70407429D01*
X108559030Y-70384329D01*
X108569520Y-70362151D01*
X108582133Y-70341107D01*
X108596747Y-70321402D01*
X108613223Y-70303223D01*
X108631402Y-70286747D01*
X108651107Y-70272133D01*
X108672151Y-70259520D01*
X108694329Y-70249030D01*
X108717429Y-70240765D01*
X108741227Y-70234804D01*
X108765496Y-70231204D01*
X108790000Y-70230000D01*
X109290000Y-70230000D01*
X109314504Y-70231204D01*
X109314504Y-70231204D01*
G37*
D11*
X109040000Y-70750000D03*
D10*
G36*
X108354504Y-70231204D02*
X108378773Y-70234804D01*
X108402571Y-70240765D01*
X108425671Y-70249030D01*
X108447849Y-70259520D01*
X108468893Y-70272133D01*
X108488598Y-70286747D01*
X108506777Y-70303223D01*
X108523253Y-70321402D01*
X108537867Y-70341107D01*
X108550480Y-70362151D01*
X108560970Y-70384329D01*
X108569235Y-70407429D01*
X108575196Y-70431227D01*
X108578796Y-70455496D01*
X108580000Y-70480000D01*
X108580000Y-71020000D01*
X108578796Y-71044504D01*
X108575196Y-71068773D01*
X108569235Y-71092571D01*
X108560970Y-71115671D01*
X108550480Y-71137849D01*
X108537867Y-71158893D01*
X108523253Y-71178598D01*
X108506777Y-71196777D01*
X108488598Y-71213253D01*
X108468893Y-71227867D01*
X108447849Y-71240480D01*
X108425671Y-71250970D01*
X108402571Y-71259235D01*
X108378773Y-71265196D01*
X108354504Y-71268796D01*
X108330000Y-71270000D01*
X107830000Y-71270000D01*
X107805496Y-71268796D01*
X107781227Y-71265196D01*
X107757429Y-71259235D01*
X107734329Y-71250970D01*
X107712151Y-71240480D01*
X107691107Y-71227867D01*
X107671402Y-71213253D01*
X107653223Y-71196777D01*
X107636747Y-71178598D01*
X107622133Y-71158893D01*
X107609520Y-71137849D01*
X107599030Y-71115671D01*
X107590765Y-71092571D01*
X107584804Y-71068773D01*
X107581204Y-71044504D01*
X107580000Y-71020000D01*
X107580000Y-70480000D01*
X107581204Y-70455496D01*
X107584804Y-70431227D01*
X107590765Y-70407429D01*
X107599030Y-70384329D01*
X107609520Y-70362151D01*
X107622133Y-70341107D01*
X107636747Y-70321402D01*
X107653223Y-70303223D01*
X107671402Y-70286747D01*
X107691107Y-70272133D01*
X107712151Y-70259520D01*
X107734329Y-70249030D01*
X107757429Y-70240765D01*
X107781227Y-70234804D01*
X107805496Y-70231204D01*
X107830000Y-70230000D01*
X108330000Y-70230000D01*
X108354504Y-70231204D01*
X108354504Y-70231204D01*
G37*
D11*
X108080000Y-70750000D03*
G04 #@! TD*
D10*
G04 #@! TO.C,R2*
G36*
X111194504Y-71081204D02*
X111218773Y-71084804D01*
X111242571Y-71090765D01*
X111265671Y-71099030D01*
X111287849Y-71109520D01*
X111308893Y-71122133D01*
X111328598Y-71136747D01*
X111346777Y-71153223D01*
X111363253Y-71171402D01*
X111377867Y-71191107D01*
X111390480Y-71212151D01*
X111400970Y-71234329D01*
X111409235Y-71257429D01*
X111415196Y-71281227D01*
X111418796Y-71305496D01*
X111420000Y-71330000D01*
X111420000Y-71830000D01*
X111418796Y-71854504D01*
X111415196Y-71878773D01*
X111409235Y-71902571D01*
X111400970Y-71925671D01*
X111390480Y-71947849D01*
X111377867Y-71968893D01*
X111363253Y-71988598D01*
X111346777Y-72006777D01*
X111328598Y-72023253D01*
X111308893Y-72037867D01*
X111287849Y-72050480D01*
X111265671Y-72060970D01*
X111242571Y-72069235D01*
X111218773Y-72075196D01*
X111194504Y-72078796D01*
X111170000Y-72080000D01*
X110630000Y-72080000D01*
X110605496Y-72078796D01*
X110581227Y-72075196D01*
X110557429Y-72069235D01*
X110534329Y-72060970D01*
X110512151Y-72050480D01*
X110491107Y-72037867D01*
X110471402Y-72023253D01*
X110453223Y-72006777D01*
X110436747Y-71988598D01*
X110422133Y-71968893D01*
X110409520Y-71947849D01*
X110399030Y-71925671D01*
X110390765Y-71902571D01*
X110384804Y-71878773D01*
X110381204Y-71854504D01*
X110380000Y-71830000D01*
X110380000Y-71330000D01*
X110381204Y-71305496D01*
X110384804Y-71281227D01*
X110390765Y-71257429D01*
X110399030Y-71234329D01*
X110409520Y-71212151D01*
X110422133Y-71191107D01*
X110436747Y-71171402D01*
X110453223Y-71153223D01*
X110471402Y-71136747D01*
X110491107Y-71122133D01*
X110512151Y-71109520D01*
X110534329Y-71099030D01*
X110557429Y-71090765D01*
X110581227Y-71084804D01*
X110605496Y-71081204D01*
X110630000Y-71080000D01*
X111170000Y-71080000D01*
X111194504Y-71081204D01*
X111194504Y-71081204D01*
G37*
D11*
X110900000Y-71580000D03*
D10*
G36*
X111194504Y-70121204D02*
X111218773Y-70124804D01*
X111242571Y-70130765D01*
X111265671Y-70139030D01*
X111287849Y-70149520D01*
X111308893Y-70162133D01*
X111328598Y-70176747D01*
X111346777Y-70193223D01*
X111363253Y-70211402D01*
X111377867Y-70231107D01*
X111390480Y-70252151D01*
X111400970Y-70274329D01*
X111409235Y-70297429D01*
X111415196Y-70321227D01*
X111418796Y-70345496D01*
X111420000Y-70370000D01*
X111420000Y-70870000D01*
X111418796Y-70894504D01*
X111415196Y-70918773D01*
X111409235Y-70942571D01*
X111400970Y-70965671D01*
X111390480Y-70987849D01*
X111377867Y-71008893D01*
X111363253Y-71028598D01*
X111346777Y-71046777D01*
X111328598Y-71063253D01*
X111308893Y-71077867D01*
X111287849Y-71090480D01*
X111265671Y-71100970D01*
X111242571Y-71109235D01*
X111218773Y-71115196D01*
X111194504Y-71118796D01*
X111170000Y-71120000D01*
X110630000Y-71120000D01*
X110605496Y-71118796D01*
X110581227Y-71115196D01*
X110557429Y-71109235D01*
X110534329Y-71100970D01*
X110512151Y-71090480D01*
X110491107Y-71077867D01*
X110471402Y-71063253D01*
X110453223Y-71046777D01*
X110436747Y-71028598D01*
X110422133Y-71008893D01*
X110409520Y-70987849D01*
X110399030Y-70965671D01*
X110390765Y-70942571D01*
X110384804Y-70918773D01*
X110381204Y-70894504D01*
X110380000Y-70870000D01*
X110380000Y-70370000D01*
X110381204Y-70345496D01*
X110384804Y-70321227D01*
X110390765Y-70297429D01*
X110399030Y-70274329D01*
X110409520Y-70252151D01*
X110422133Y-70231107D01*
X110436747Y-70211402D01*
X110453223Y-70193223D01*
X110471402Y-70176747D01*
X110491107Y-70162133D01*
X110512151Y-70149520D01*
X110534329Y-70139030D01*
X110557429Y-70130765D01*
X110581227Y-70124804D01*
X110605496Y-70121204D01*
X110630000Y-70120000D01*
X111170000Y-70120000D01*
X111194504Y-70121204D01*
X111194504Y-70121204D01*
G37*
D11*
X110900000Y-70620000D03*
G04 #@! TD*
D10*
G04 #@! TO.C,R3*
G36*
X106094504Y-71081204D02*
X106118773Y-71084804D01*
X106142571Y-71090765D01*
X106165671Y-71099030D01*
X106187849Y-71109520D01*
X106208893Y-71122133D01*
X106228598Y-71136747D01*
X106246777Y-71153223D01*
X106263253Y-71171402D01*
X106277867Y-71191107D01*
X106290480Y-71212151D01*
X106300970Y-71234329D01*
X106309235Y-71257429D01*
X106315196Y-71281227D01*
X106318796Y-71305496D01*
X106320000Y-71330000D01*
X106320000Y-71830000D01*
X106318796Y-71854504D01*
X106315196Y-71878773D01*
X106309235Y-71902571D01*
X106300970Y-71925671D01*
X106290480Y-71947849D01*
X106277867Y-71968893D01*
X106263253Y-71988598D01*
X106246777Y-72006777D01*
X106228598Y-72023253D01*
X106208893Y-72037867D01*
X106187849Y-72050480D01*
X106165671Y-72060970D01*
X106142571Y-72069235D01*
X106118773Y-72075196D01*
X106094504Y-72078796D01*
X106070000Y-72080000D01*
X105530000Y-72080000D01*
X105505496Y-72078796D01*
X105481227Y-72075196D01*
X105457429Y-72069235D01*
X105434329Y-72060970D01*
X105412151Y-72050480D01*
X105391107Y-72037867D01*
X105371402Y-72023253D01*
X105353223Y-72006777D01*
X105336747Y-71988598D01*
X105322133Y-71968893D01*
X105309520Y-71947849D01*
X105299030Y-71925671D01*
X105290765Y-71902571D01*
X105284804Y-71878773D01*
X105281204Y-71854504D01*
X105280000Y-71830000D01*
X105280000Y-71330000D01*
X105281204Y-71305496D01*
X105284804Y-71281227D01*
X105290765Y-71257429D01*
X105299030Y-71234329D01*
X105309520Y-71212151D01*
X105322133Y-71191107D01*
X105336747Y-71171402D01*
X105353223Y-71153223D01*
X105371402Y-71136747D01*
X105391107Y-71122133D01*
X105412151Y-71109520D01*
X105434329Y-71099030D01*
X105457429Y-71090765D01*
X105481227Y-71084804D01*
X105505496Y-71081204D01*
X105530000Y-71080000D01*
X106070000Y-71080000D01*
X106094504Y-71081204D01*
X106094504Y-71081204D01*
G37*
D11*
X105800000Y-71580000D03*
D10*
G36*
X106094504Y-70121204D02*
X106118773Y-70124804D01*
X106142571Y-70130765D01*
X106165671Y-70139030D01*
X106187849Y-70149520D01*
X106208893Y-70162133D01*
X106228598Y-70176747D01*
X106246777Y-70193223D01*
X106263253Y-70211402D01*
X106277867Y-70231107D01*
X106290480Y-70252151D01*
X106300970Y-70274329D01*
X106309235Y-70297429D01*
X106315196Y-70321227D01*
X106318796Y-70345496D01*
X106320000Y-70370000D01*
X106320000Y-70870000D01*
X106318796Y-70894504D01*
X106315196Y-70918773D01*
X106309235Y-70942571D01*
X106300970Y-70965671D01*
X106290480Y-70987849D01*
X106277867Y-71008893D01*
X106263253Y-71028598D01*
X106246777Y-71046777D01*
X106228598Y-71063253D01*
X106208893Y-71077867D01*
X106187849Y-71090480D01*
X106165671Y-71100970D01*
X106142571Y-71109235D01*
X106118773Y-71115196D01*
X106094504Y-71118796D01*
X106070000Y-71120000D01*
X105530000Y-71120000D01*
X105505496Y-71118796D01*
X105481227Y-71115196D01*
X105457429Y-71109235D01*
X105434329Y-71100970D01*
X105412151Y-71090480D01*
X105391107Y-71077867D01*
X105371402Y-71063253D01*
X105353223Y-71046777D01*
X105336747Y-71028598D01*
X105322133Y-71008893D01*
X105309520Y-70987849D01*
X105299030Y-70965671D01*
X105290765Y-70942571D01*
X105284804Y-70918773D01*
X105281204Y-70894504D01*
X105280000Y-70870000D01*
X105280000Y-70370000D01*
X105281204Y-70345496D01*
X105284804Y-70321227D01*
X105290765Y-70297429D01*
X105299030Y-70274329D01*
X105309520Y-70252151D01*
X105322133Y-70231107D01*
X105336747Y-70211402D01*
X105353223Y-70193223D01*
X105371402Y-70176747D01*
X105391107Y-70162133D01*
X105412151Y-70149520D01*
X105434329Y-70139030D01*
X105457429Y-70130765D01*
X105481227Y-70124804D01*
X105505496Y-70121204D01*
X105530000Y-70120000D01*
X106070000Y-70120000D01*
X106094504Y-70121204D01*
X106094504Y-70121204D01*
G37*
D11*
X105800000Y-70620000D03*
G04 #@! TD*
D10*
G04 #@! TO.C,R4*
G36*
X108914504Y-72431204D02*
X108938773Y-72434804D01*
X108962571Y-72440765D01*
X108985671Y-72449030D01*
X109007849Y-72459520D01*
X109028893Y-72472133D01*
X109048598Y-72486747D01*
X109066777Y-72503223D01*
X109083253Y-72521402D01*
X109097867Y-72541107D01*
X109110480Y-72562151D01*
X109120970Y-72584329D01*
X109129235Y-72607429D01*
X109135196Y-72631227D01*
X109138796Y-72655496D01*
X109140000Y-72680000D01*
X109140000Y-73220000D01*
X109138796Y-73244504D01*
X109135196Y-73268773D01*
X109129235Y-73292571D01*
X109120970Y-73315671D01*
X109110480Y-73337849D01*
X109097867Y-73358893D01*
X109083253Y-73378598D01*
X109066777Y-73396777D01*
X109048598Y-73413253D01*
X109028893Y-73427867D01*
X109007849Y-73440480D01*
X108985671Y-73450970D01*
X108962571Y-73459235D01*
X108938773Y-73465196D01*
X108914504Y-73468796D01*
X108890000Y-73470000D01*
X108390000Y-73470000D01*
X108365496Y-73468796D01*
X108341227Y-73465196D01*
X108317429Y-73459235D01*
X108294329Y-73450970D01*
X108272151Y-73440480D01*
X108251107Y-73427867D01*
X108231402Y-73413253D01*
X108213223Y-73396777D01*
X108196747Y-73378598D01*
X108182133Y-73358893D01*
X108169520Y-73337849D01*
X108159030Y-73315671D01*
X108150765Y-73292571D01*
X108144804Y-73268773D01*
X108141204Y-73244504D01*
X108140000Y-73220000D01*
X108140000Y-72680000D01*
X108141204Y-72655496D01*
X108144804Y-72631227D01*
X108150765Y-72607429D01*
X108159030Y-72584329D01*
X108169520Y-72562151D01*
X108182133Y-72541107D01*
X108196747Y-72521402D01*
X108213223Y-72503223D01*
X108231402Y-72486747D01*
X108251107Y-72472133D01*
X108272151Y-72459520D01*
X108294329Y-72449030D01*
X108317429Y-72440765D01*
X108341227Y-72434804D01*
X108365496Y-72431204D01*
X108390000Y-72430000D01*
X108890000Y-72430000D01*
X108914504Y-72431204D01*
X108914504Y-72431204D01*
G37*
D11*
X108640000Y-72950000D03*
D10*
G36*
X107954504Y-72431204D02*
X107978773Y-72434804D01*
X108002571Y-72440765D01*
X108025671Y-72449030D01*
X108047849Y-72459520D01*
X108068893Y-72472133D01*
X108088598Y-72486747D01*
X108106777Y-72503223D01*
X108123253Y-72521402D01*
X108137867Y-72541107D01*
X108150480Y-72562151D01*
X108160970Y-72584329D01*
X108169235Y-72607429D01*
X108175196Y-72631227D01*
X108178796Y-72655496D01*
X108180000Y-72680000D01*
X108180000Y-73220000D01*
X108178796Y-73244504D01*
X108175196Y-73268773D01*
X108169235Y-73292571D01*
X108160970Y-73315671D01*
X108150480Y-73337849D01*
X108137867Y-73358893D01*
X108123253Y-73378598D01*
X108106777Y-73396777D01*
X108088598Y-73413253D01*
X108068893Y-73427867D01*
X108047849Y-73440480D01*
X108025671Y-73450970D01*
X108002571Y-73459235D01*
X107978773Y-73465196D01*
X107954504Y-73468796D01*
X107930000Y-73470000D01*
X107430000Y-73470000D01*
X107405496Y-73468796D01*
X107381227Y-73465196D01*
X107357429Y-73459235D01*
X107334329Y-73450970D01*
X107312151Y-73440480D01*
X107291107Y-73427867D01*
X107271402Y-73413253D01*
X107253223Y-73396777D01*
X107236747Y-73378598D01*
X107222133Y-73358893D01*
X107209520Y-73337849D01*
X107199030Y-73315671D01*
X107190765Y-73292571D01*
X107184804Y-73268773D01*
X107181204Y-73244504D01*
X107180000Y-73220000D01*
X107180000Y-72680000D01*
X107181204Y-72655496D01*
X107184804Y-72631227D01*
X107190765Y-72607429D01*
X107199030Y-72584329D01*
X107209520Y-72562151D01*
X107222133Y-72541107D01*
X107236747Y-72521402D01*
X107253223Y-72503223D01*
X107271402Y-72486747D01*
X107291107Y-72472133D01*
X107312151Y-72459520D01*
X107334329Y-72449030D01*
X107357429Y-72440765D01*
X107381227Y-72434804D01*
X107405496Y-72431204D01*
X107430000Y-72430000D01*
X107930000Y-72430000D01*
X107954504Y-72431204D01*
X107954504Y-72431204D01*
G37*
D11*
X107680000Y-72950000D03*
G04 #@! TD*
D10*
G04 #@! TO.C,R5*
G36*
X108354504Y-71331204D02*
X108378773Y-71334804D01*
X108402571Y-71340765D01*
X108425671Y-71349030D01*
X108447849Y-71359520D01*
X108468893Y-71372133D01*
X108488598Y-71386747D01*
X108506777Y-71403223D01*
X108523253Y-71421402D01*
X108537867Y-71441107D01*
X108550480Y-71462151D01*
X108560970Y-71484329D01*
X108569235Y-71507429D01*
X108575196Y-71531227D01*
X108578796Y-71555496D01*
X108580000Y-71580000D01*
X108580000Y-72120000D01*
X108578796Y-72144504D01*
X108575196Y-72168773D01*
X108569235Y-72192571D01*
X108560970Y-72215671D01*
X108550480Y-72237849D01*
X108537867Y-72258893D01*
X108523253Y-72278598D01*
X108506777Y-72296777D01*
X108488598Y-72313253D01*
X108468893Y-72327867D01*
X108447849Y-72340480D01*
X108425671Y-72350970D01*
X108402571Y-72359235D01*
X108378773Y-72365196D01*
X108354504Y-72368796D01*
X108330000Y-72370000D01*
X107830000Y-72370000D01*
X107805496Y-72368796D01*
X107781227Y-72365196D01*
X107757429Y-72359235D01*
X107734329Y-72350970D01*
X107712151Y-72340480D01*
X107691107Y-72327867D01*
X107671402Y-72313253D01*
X107653223Y-72296777D01*
X107636747Y-72278598D01*
X107622133Y-72258893D01*
X107609520Y-72237849D01*
X107599030Y-72215671D01*
X107590765Y-72192571D01*
X107584804Y-72168773D01*
X107581204Y-72144504D01*
X107580000Y-72120000D01*
X107580000Y-71580000D01*
X107581204Y-71555496D01*
X107584804Y-71531227D01*
X107590765Y-71507429D01*
X107599030Y-71484329D01*
X107609520Y-71462151D01*
X107622133Y-71441107D01*
X107636747Y-71421402D01*
X107653223Y-71403223D01*
X107671402Y-71386747D01*
X107691107Y-71372133D01*
X107712151Y-71359520D01*
X107734329Y-71349030D01*
X107757429Y-71340765D01*
X107781227Y-71334804D01*
X107805496Y-71331204D01*
X107830000Y-71330000D01*
X108330000Y-71330000D01*
X108354504Y-71331204D01*
X108354504Y-71331204D01*
G37*
D11*
X108080000Y-71850000D03*
D10*
G36*
X109314504Y-71331204D02*
X109338773Y-71334804D01*
X109362571Y-71340765D01*
X109385671Y-71349030D01*
X109407849Y-71359520D01*
X109428893Y-71372133D01*
X109448598Y-71386747D01*
X109466777Y-71403223D01*
X109483253Y-71421402D01*
X109497867Y-71441107D01*
X109510480Y-71462151D01*
X109520970Y-71484329D01*
X109529235Y-71507429D01*
X109535196Y-71531227D01*
X109538796Y-71555496D01*
X109540000Y-71580000D01*
X109540000Y-72120000D01*
X109538796Y-72144504D01*
X109535196Y-72168773D01*
X109529235Y-72192571D01*
X109520970Y-72215671D01*
X109510480Y-72237849D01*
X109497867Y-72258893D01*
X109483253Y-72278598D01*
X109466777Y-72296777D01*
X109448598Y-72313253D01*
X109428893Y-72327867D01*
X109407849Y-72340480D01*
X109385671Y-72350970D01*
X109362571Y-72359235D01*
X109338773Y-72365196D01*
X109314504Y-72368796D01*
X109290000Y-72370000D01*
X108790000Y-72370000D01*
X108765496Y-72368796D01*
X108741227Y-72365196D01*
X108717429Y-72359235D01*
X108694329Y-72350970D01*
X108672151Y-72340480D01*
X108651107Y-72327867D01*
X108631402Y-72313253D01*
X108613223Y-72296777D01*
X108596747Y-72278598D01*
X108582133Y-72258893D01*
X108569520Y-72237849D01*
X108559030Y-72215671D01*
X108550765Y-72192571D01*
X108544804Y-72168773D01*
X108541204Y-72144504D01*
X108540000Y-72120000D01*
X108540000Y-71580000D01*
X108541204Y-71555496D01*
X108544804Y-71531227D01*
X108550765Y-71507429D01*
X108559030Y-71484329D01*
X108569520Y-71462151D01*
X108582133Y-71441107D01*
X108596747Y-71421402D01*
X108613223Y-71403223D01*
X108631402Y-71386747D01*
X108651107Y-71372133D01*
X108672151Y-71359520D01*
X108694329Y-71349030D01*
X108717429Y-71340765D01*
X108741227Y-71334804D01*
X108765496Y-71331204D01*
X108790000Y-71330000D01*
X109290000Y-71330000D01*
X109314504Y-71331204D01*
X109314504Y-71331204D01*
G37*
D11*
X109040000Y-71850000D03*
G04 #@! TD*
D10*
G04 #@! TO.C,R7*
G36*
X105924504Y-72621204D02*
X105948773Y-72624804D01*
X105972571Y-72630765D01*
X105995671Y-72639030D01*
X106017849Y-72649520D01*
X106038893Y-72662133D01*
X106058598Y-72676747D01*
X106076777Y-72693223D01*
X106093253Y-72711402D01*
X106107867Y-72731107D01*
X106120480Y-72752151D01*
X106130970Y-72774329D01*
X106139235Y-72797429D01*
X106145196Y-72821227D01*
X106148796Y-72845496D01*
X106150000Y-72870000D01*
X106150000Y-73370000D01*
X106148796Y-73394504D01*
X106145196Y-73418773D01*
X106139235Y-73442571D01*
X106130970Y-73465671D01*
X106120480Y-73487849D01*
X106107867Y-73508893D01*
X106093253Y-73528598D01*
X106076777Y-73546777D01*
X106058598Y-73563253D01*
X106038893Y-73577867D01*
X106017849Y-73590480D01*
X105995671Y-73600970D01*
X105972571Y-73609235D01*
X105948773Y-73615196D01*
X105924504Y-73618796D01*
X105900000Y-73620000D01*
X105360000Y-73620000D01*
X105335496Y-73618796D01*
X105311227Y-73615196D01*
X105287429Y-73609235D01*
X105264329Y-73600970D01*
X105242151Y-73590480D01*
X105221107Y-73577867D01*
X105201402Y-73563253D01*
X105183223Y-73546777D01*
X105166747Y-73528598D01*
X105152133Y-73508893D01*
X105139520Y-73487849D01*
X105129030Y-73465671D01*
X105120765Y-73442571D01*
X105114804Y-73418773D01*
X105111204Y-73394504D01*
X105110000Y-73370000D01*
X105110000Y-72870000D01*
X105111204Y-72845496D01*
X105114804Y-72821227D01*
X105120765Y-72797429D01*
X105129030Y-72774329D01*
X105139520Y-72752151D01*
X105152133Y-72731107D01*
X105166747Y-72711402D01*
X105183223Y-72693223D01*
X105201402Y-72676747D01*
X105221107Y-72662133D01*
X105242151Y-72649520D01*
X105264329Y-72639030D01*
X105287429Y-72630765D01*
X105311227Y-72624804D01*
X105335496Y-72621204D01*
X105360000Y-72620000D01*
X105900000Y-72620000D01*
X105924504Y-72621204D01*
X105924504Y-72621204D01*
G37*
D11*
X105630000Y-73120000D03*
D10*
G36*
X105924504Y-73581204D02*
X105948773Y-73584804D01*
X105972571Y-73590765D01*
X105995671Y-73599030D01*
X106017849Y-73609520D01*
X106038893Y-73622133D01*
X106058598Y-73636747D01*
X106076777Y-73653223D01*
X106093253Y-73671402D01*
X106107867Y-73691107D01*
X106120480Y-73712151D01*
X106130970Y-73734329D01*
X106139235Y-73757429D01*
X106145196Y-73781227D01*
X106148796Y-73805496D01*
X106150000Y-73830000D01*
X106150000Y-74330000D01*
X106148796Y-74354504D01*
X106145196Y-74378773D01*
X106139235Y-74402571D01*
X106130970Y-74425671D01*
X106120480Y-74447849D01*
X106107867Y-74468893D01*
X106093253Y-74488598D01*
X106076777Y-74506777D01*
X106058598Y-74523253D01*
X106038893Y-74537867D01*
X106017849Y-74550480D01*
X105995671Y-74560970D01*
X105972571Y-74569235D01*
X105948773Y-74575196D01*
X105924504Y-74578796D01*
X105900000Y-74580000D01*
X105360000Y-74580000D01*
X105335496Y-74578796D01*
X105311227Y-74575196D01*
X105287429Y-74569235D01*
X105264329Y-74560970D01*
X105242151Y-74550480D01*
X105221107Y-74537867D01*
X105201402Y-74523253D01*
X105183223Y-74506777D01*
X105166747Y-74488598D01*
X105152133Y-74468893D01*
X105139520Y-74447849D01*
X105129030Y-74425671D01*
X105120765Y-74402571D01*
X105114804Y-74378773D01*
X105111204Y-74354504D01*
X105110000Y-74330000D01*
X105110000Y-73830000D01*
X105111204Y-73805496D01*
X105114804Y-73781227D01*
X105120765Y-73757429D01*
X105129030Y-73734329D01*
X105139520Y-73712151D01*
X105152133Y-73691107D01*
X105166747Y-73671402D01*
X105183223Y-73653223D01*
X105201402Y-73636747D01*
X105221107Y-73622133D01*
X105242151Y-73609520D01*
X105264329Y-73599030D01*
X105287429Y-73590765D01*
X105311227Y-73584804D01*
X105335496Y-73581204D01*
X105360000Y-73580000D01*
X105900000Y-73580000D01*
X105924504Y-73581204D01*
X105924504Y-73581204D01*
G37*
D11*
X105630000Y-74080000D03*
G04 #@! TD*
D10*
G04 #@! TO.C,R8*
G36*
X111144504Y-75471204D02*
X111168773Y-75474804D01*
X111192571Y-75480765D01*
X111215671Y-75489030D01*
X111237849Y-75499520D01*
X111258893Y-75512133D01*
X111278598Y-75526747D01*
X111296777Y-75543223D01*
X111313253Y-75561402D01*
X111327867Y-75581107D01*
X111340480Y-75602151D01*
X111350970Y-75624329D01*
X111359235Y-75647429D01*
X111365196Y-75671227D01*
X111368796Y-75695496D01*
X111370000Y-75720000D01*
X111370000Y-76220000D01*
X111368796Y-76244504D01*
X111365196Y-76268773D01*
X111359235Y-76292571D01*
X111350970Y-76315671D01*
X111340480Y-76337849D01*
X111327867Y-76358893D01*
X111313253Y-76378598D01*
X111296777Y-76396777D01*
X111278598Y-76413253D01*
X111258893Y-76427867D01*
X111237849Y-76440480D01*
X111215671Y-76450970D01*
X111192571Y-76459235D01*
X111168773Y-76465196D01*
X111144504Y-76468796D01*
X111120000Y-76470000D01*
X110580000Y-76470000D01*
X110555496Y-76468796D01*
X110531227Y-76465196D01*
X110507429Y-76459235D01*
X110484329Y-76450970D01*
X110462151Y-76440480D01*
X110441107Y-76427867D01*
X110421402Y-76413253D01*
X110403223Y-76396777D01*
X110386747Y-76378598D01*
X110372133Y-76358893D01*
X110359520Y-76337849D01*
X110349030Y-76315671D01*
X110340765Y-76292571D01*
X110334804Y-76268773D01*
X110331204Y-76244504D01*
X110330000Y-76220000D01*
X110330000Y-75720000D01*
X110331204Y-75695496D01*
X110334804Y-75671227D01*
X110340765Y-75647429D01*
X110349030Y-75624329D01*
X110359520Y-75602151D01*
X110372133Y-75581107D01*
X110386747Y-75561402D01*
X110403223Y-75543223D01*
X110421402Y-75526747D01*
X110441107Y-75512133D01*
X110462151Y-75499520D01*
X110484329Y-75489030D01*
X110507429Y-75480765D01*
X110531227Y-75474804D01*
X110555496Y-75471204D01*
X110580000Y-75470000D01*
X111120000Y-75470000D01*
X111144504Y-75471204D01*
X111144504Y-75471204D01*
G37*
D11*
X110850000Y-75970000D03*
D10*
G36*
X111144504Y-74511204D02*
X111168773Y-74514804D01*
X111192571Y-74520765D01*
X111215671Y-74529030D01*
X111237849Y-74539520D01*
X111258893Y-74552133D01*
X111278598Y-74566747D01*
X111296777Y-74583223D01*
X111313253Y-74601402D01*
X111327867Y-74621107D01*
X111340480Y-74642151D01*
X111350970Y-74664329D01*
X111359235Y-74687429D01*
X111365196Y-74711227D01*
X111368796Y-74735496D01*
X111370000Y-74760000D01*
X111370000Y-75260000D01*
X111368796Y-75284504D01*
X111365196Y-75308773D01*
X111359235Y-75332571D01*
X111350970Y-75355671D01*
X111340480Y-75377849D01*
X111327867Y-75398893D01*
X111313253Y-75418598D01*
X111296777Y-75436777D01*
X111278598Y-75453253D01*
X111258893Y-75467867D01*
X111237849Y-75480480D01*
X111215671Y-75490970D01*
X111192571Y-75499235D01*
X111168773Y-75505196D01*
X111144504Y-75508796D01*
X111120000Y-75510000D01*
X110580000Y-75510000D01*
X110555496Y-75508796D01*
X110531227Y-75505196D01*
X110507429Y-75499235D01*
X110484329Y-75490970D01*
X110462151Y-75480480D01*
X110441107Y-75467867D01*
X110421402Y-75453253D01*
X110403223Y-75436777D01*
X110386747Y-75418598D01*
X110372133Y-75398893D01*
X110359520Y-75377849D01*
X110349030Y-75355671D01*
X110340765Y-75332571D01*
X110334804Y-75308773D01*
X110331204Y-75284504D01*
X110330000Y-75260000D01*
X110330000Y-74760000D01*
X110331204Y-74735496D01*
X110334804Y-74711227D01*
X110340765Y-74687429D01*
X110349030Y-74664329D01*
X110359520Y-74642151D01*
X110372133Y-74621107D01*
X110386747Y-74601402D01*
X110403223Y-74583223D01*
X110421402Y-74566747D01*
X110441107Y-74552133D01*
X110462151Y-74539520D01*
X110484329Y-74529030D01*
X110507429Y-74520765D01*
X110531227Y-74514804D01*
X110555496Y-74511204D01*
X110580000Y-74510000D01*
X111120000Y-74510000D01*
X111144504Y-74511204D01*
X111144504Y-74511204D01*
G37*
D11*
X110850000Y-75010000D03*
G04 #@! TD*
D10*
G04 #@! TO.C,R9*
G36*
X112204504Y-75471204D02*
X112228773Y-75474804D01*
X112252571Y-75480765D01*
X112275671Y-75489030D01*
X112297849Y-75499520D01*
X112318893Y-75512133D01*
X112338598Y-75526747D01*
X112356777Y-75543223D01*
X112373253Y-75561402D01*
X112387867Y-75581107D01*
X112400480Y-75602151D01*
X112410970Y-75624329D01*
X112419235Y-75647429D01*
X112425196Y-75671227D01*
X112428796Y-75695496D01*
X112430000Y-75720000D01*
X112430000Y-76220000D01*
X112428796Y-76244504D01*
X112425196Y-76268773D01*
X112419235Y-76292571D01*
X112410970Y-76315671D01*
X112400480Y-76337849D01*
X112387867Y-76358893D01*
X112373253Y-76378598D01*
X112356777Y-76396777D01*
X112338598Y-76413253D01*
X112318893Y-76427867D01*
X112297849Y-76440480D01*
X112275671Y-76450970D01*
X112252571Y-76459235D01*
X112228773Y-76465196D01*
X112204504Y-76468796D01*
X112180000Y-76470000D01*
X111640000Y-76470000D01*
X111615496Y-76468796D01*
X111591227Y-76465196D01*
X111567429Y-76459235D01*
X111544329Y-76450970D01*
X111522151Y-76440480D01*
X111501107Y-76427867D01*
X111481402Y-76413253D01*
X111463223Y-76396777D01*
X111446747Y-76378598D01*
X111432133Y-76358893D01*
X111419520Y-76337849D01*
X111409030Y-76315671D01*
X111400765Y-76292571D01*
X111394804Y-76268773D01*
X111391204Y-76244504D01*
X111390000Y-76220000D01*
X111390000Y-75720000D01*
X111391204Y-75695496D01*
X111394804Y-75671227D01*
X111400765Y-75647429D01*
X111409030Y-75624329D01*
X111419520Y-75602151D01*
X111432133Y-75581107D01*
X111446747Y-75561402D01*
X111463223Y-75543223D01*
X111481402Y-75526747D01*
X111501107Y-75512133D01*
X111522151Y-75499520D01*
X111544329Y-75489030D01*
X111567429Y-75480765D01*
X111591227Y-75474804D01*
X111615496Y-75471204D01*
X111640000Y-75470000D01*
X112180000Y-75470000D01*
X112204504Y-75471204D01*
X112204504Y-75471204D01*
G37*
D11*
X111910000Y-75970000D03*
D10*
G36*
X112204504Y-74511204D02*
X112228773Y-74514804D01*
X112252571Y-74520765D01*
X112275671Y-74529030D01*
X112297849Y-74539520D01*
X112318893Y-74552133D01*
X112338598Y-74566747D01*
X112356777Y-74583223D01*
X112373253Y-74601402D01*
X112387867Y-74621107D01*
X112400480Y-74642151D01*
X112410970Y-74664329D01*
X112419235Y-74687429D01*
X112425196Y-74711227D01*
X112428796Y-74735496D01*
X112430000Y-74760000D01*
X112430000Y-75260000D01*
X112428796Y-75284504D01*
X112425196Y-75308773D01*
X112419235Y-75332571D01*
X112410970Y-75355671D01*
X112400480Y-75377849D01*
X112387867Y-75398893D01*
X112373253Y-75418598D01*
X112356777Y-75436777D01*
X112338598Y-75453253D01*
X112318893Y-75467867D01*
X112297849Y-75480480D01*
X112275671Y-75490970D01*
X112252571Y-75499235D01*
X112228773Y-75505196D01*
X112204504Y-75508796D01*
X112180000Y-75510000D01*
X111640000Y-75510000D01*
X111615496Y-75508796D01*
X111591227Y-75505196D01*
X111567429Y-75499235D01*
X111544329Y-75490970D01*
X111522151Y-75480480D01*
X111501107Y-75467867D01*
X111481402Y-75453253D01*
X111463223Y-75436777D01*
X111446747Y-75418598D01*
X111432133Y-75398893D01*
X111419520Y-75377849D01*
X111409030Y-75355671D01*
X111400765Y-75332571D01*
X111394804Y-75308773D01*
X111391204Y-75284504D01*
X111390000Y-75260000D01*
X111390000Y-74760000D01*
X111391204Y-74735496D01*
X111394804Y-74711227D01*
X111400765Y-74687429D01*
X111409030Y-74664329D01*
X111419520Y-74642151D01*
X111432133Y-74621107D01*
X111446747Y-74601402D01*
X111463223Y-74583223D01*
X111481402Y-74566747D01*
X111501107Y-74552133D01*
X111522151Y-74539520D01*
X111544329Y-74529030D01*
X111567429Y-74520765D01*
X111591227Y-74514804D01*
X111615496Y-74511204D01*
X111640000Y-74510000D01*
X112180000Y-74510000D01*
X112204504Y-74511204D01*
X112204504Y-74511204D01*
G37*
D11*
X111910000Y-75010000D03*
G04 #@! TD*
D12*
G04 #@! TO.C,TP1*
X110550000Y-69375000D03*
G04 #@! TD*
G04 #@! TO.C,TP2*
X106150000Y-69375000D03*
G04 #@! TD*
G04 #@! TO.C,TP3*
X106800000Y-77230000D03*
G04 #@! TD*
G04 #@! TO.C,TP7*
X108800000Y-77230000D03*
G04 #@! TD*
M02*
