G04 #@! TF.GenerationSoftware,KiCad,Pcbnew,5.0.0-fee4fd1~65~ubuntu17.10.1*
G04 #@! TF.CreationDate,2018-11-13T13:10:49-08:00*
G04 #@! TF.ProjectId,instrumentationamp,696E737472756D656E746174696F6E61,rev?*
G04 #@! TF.SameCoordinates,Original*
G04 #@! TF.FileFunction,Copper,L2,Bot,Signal*
G04 #@! TF.FilePolarity,Positive*
%FSLAX46Y46*%
G04 Gerber Fmt 4.6, Leading zero omitted, Abs format (unit mm)*
G04 Created by KiCad (PCBNEW 5.0.0-fee4fd1~65~ubuntu17.10.1) date Tue Nov 13 13:10:49 2018*
%MOMM*%
%LPD*%
G01*
G04 APERTURE LIST*
G04 #@! TA.AperFunction,SMDPad,CuDef*
%ADD10R,1.450000X0.450000*%
G04 #@! TD*
G04 #@! TA.AperFunction,ViaPad*
%ADD11C,0.508000*%
G04 #@! TD*
G04 #@! TA.AperFunction,Conductor*
%ADD12C,0.152400*%
G04 #@! TD*
G04 APERTURE END LIST*
D10*
G04 #@! TO.P,U1,1*
G04 #@! TO.N,/Vimeas*
X105425001Y-74345001D03*
G04 #@! TO.P,U1,2*
G04 #@! TO.N,Net-(R4-Pad1)*
X105425001Y-73695001D03*
G04 #@! TO.P,U1,3*
G04 #@! TO.N,Net-(R5-Pad1)*
X105425001Y-73045001D03*
G04 #@! TO.P,U1,4*
G04 #@! TO.N,VCC*
X105425001Y-72395001D03*
G04 #@! TO.P,U1,5*
G04 #@! TO.N,/Vin+*
X105425001Y-71745001D03*
G04 #@! TO.P,U1,6*
G04 #@! TO.N,Net-(R1-Pad2)*
X105425001Y-71095001D03*
G04 #@! TO.P,U1,7*
G04 #@! TO.N,Net-(R3-Pad1)*
X105425001Y-70445001D03*
G04 #@! TO.P,U1,8*
G04 #@! TO.N,Net-(R2-Pad2)*
X111325001Y-70445001D03*
G04 #@! TO.P,U1,9*
G04 #@! TO.N,Net-(R1-Pad1)*
X111325001Y-71095001D03*
G04 #@! TO.P,U1,10*
G04 #@! TO.N,/Vin-*
X111325001Y-71745001D03*
G04 #@! TO.P,U1,11*
G04 #@! TO.N,GND*
X111325001Y-72395001D03*
G04 #@! TO.P,U1,12*
G04 #@! TO.N,Net-(R11-Pad1)*
X111325001Y-73045001D03*
G04 #@! TO.P,U1,13*
G04 #@! TO.N,Net-(C2-Pad2)*
X111325001Y-73695001D03*
G04 #@! TO.P,U1,14*
G04 #@! TO.N,/vout*
X111325001Y-74345001D03*
G04 #@! TD*
D11*
G04 #@! TO.N,VCC*
X109620000Y-75770000D03*
G04 #@! TO.N,GND*
X112525000Y-72525000D03*
X105780000Y-76570000D03*
X104110000Y-75980000D03*
G04 #@! TO.N,Net-(R1-Pad1)*
X109893038Y-71196147D03*
G04 #@! TO.N,Net-(R1-Pad2)*
X107000000Y-71380000D03*
G04 #@! TO.N,Net-(R2-Pad2)*
X110036418Y-70493832D03*
G04 #@! TO.N,Net-(R3-Pad1)*
X110030000Y-71910000D03*
X106990000Y-70445001D03*
G04 #@! TO.N,Net-(R4-Pad1)*
X106800000Y-73700000D03*
G04 #@! TO.N,Net-(R5-Pad1)*
X106919998Y-72400000D03*
G04 #@! TO.N,/vout*
X110060000Y-74530000D03*
X109800000Y-76610000D03*
G04 #@! TO.N,/Vimeas*
X106800000Y-74500000D03*
G04 #@! TO.N,/Vin+*
X104150000Y-71725000D03*
G04 #@! TO.N,/Vin-*
X112549994Y-71725000D03*
G04 #@! TO.N,Net-(C2-Pad2)*
X109870000Y-73800000D03*
G04 #@! TO.N,Net-(R11-Pad1)*
X109530000Y-73130000D03*
G04 #@! TD*
D12*
G04 #@! TO.N,VCC*
X105425001Y-72395001D02*
X104547601Y-72395001D01*
X104175000Y-72767602D02*
X104175000Y-74895000D01*
X109260790Y-75770000D02*
X109620000Y-75770000D01*
X105050000Y-75770000D02*
X109260790Y-75770000D01*
X104547601Y-72395001D02*
X104175000Y-72767602D01*
X104175000Y-74895000D02*
X105050000Y-75770000D01*
G04 #@! TO.N,GND*
X112395001Y-72395001D02*
X112525000Y-72525000D01*
X105780000Y-77166009D02*
X105793991Y-77180000D01*
X105780000Y-76570000D02*
X105780000Y-77166009D01*
X105310000Y-77180000D02*
X104363999Y-76233999D01*
X104363999Y-76233999D02*
X104110000Y-75980000D01*
X105793991Y-77180000D02*
X105310000Y-77180000D01*
X111325001Y-72395001D02*
X112290000Y-72395001D01*
X112290000Y-72395001D02*
X112395001Y-72395001D01*
X112730000Y-74760000D02*
X112730000Y-72835001D01*
X109732399Y-77757601D02*
X112730000Y-74760000D01*
X105793991Y-77180000D02*
X106371592Y-77757601D01*
X112730000Y-72835001D02*
X112290000Y-72395001D01*
X106371592Y-77757601D02*
X109732399Y-77757601D01*
G04 #@! TO.N,Net-(R1-Pad1)*
X109994184Y-71095001D02*
X109893038Y-71196147D01*
X111325001Y-71095001D02*
X109994184Y-71095001D01*
G04 #@! TO.N,Net-(R1-Pad2)*
X105425001Y-71095001D02*
X106715001Y-71095001D01*
X106715001Y-71095001D02*
X107000000Y-71380000D01*
G04 #@! TO.N,Net-(R2-Pad2)*
X111325001Y-70445001D02*
X110045001Y-70445001D01*
X110045001Y-70445001D02*
X110000000Y-70400000D01*
G04 #@! TO.N,Net-(R3-Pad1)*
X109625750Y-71910000D02*
X109670790Y-71910000D01*
X108160751Y-70445001D02*
X109625750Y-71910000D01*
X109670790Y-71910000D02*
X110030000Y-71910000D01*
X105425001Y-70445001D02*
X106990000Y-70445001D01*
X106990000Y-70445001D02*
X108160751Y-70445001D01*
G04 #@! TO.N,Net-(R4-Pad1)*
X105425001Y-73695001D02*
X106795001Y-73695001D01*
X106795001Y-73695001D02*
X106800000Y-73700000D01*
G04 #@! TO.N,Net-(R5-Pad1)*
X106302401Y-73045001D02*
X106919998Y-72427404D01*
X105425001Y-73045001D02*
X106302401Y-73045001D01*
X106919998Y-72427404D02*
X106919998Y-72400000D01*
G04 #@! TO.N,/vout*
X110244999Y-74345001D02*
X110060000Y-74530000D01*
X111325001Y-74345001D02*
X110244999Y-74345001D01*
X111325001Y-74345001D02*
X111325001Y-75084999D01*
X110053999Y-76356001D02*
X109800000Y-76610000D01*
X111325001Y-75084999D02*
X110053999Y-76356001D01*
G04 #@! TO.N,/Vimeas*
X105580000Y-74500000D02*
X105425001Y-74345001D01*
X106800000Y-74500000D02*
X105580000Y-74500000D01*
G04 #@! TO.N,/Vin+*
X105425001Y-71745001D02*
X104170001Y-71745001D01*
X104170001Y-71745001D02*
X104150000Y-71725000D01*
G04 #@! TO.N,/Vin-*
X111325001Y-71745001D02*
X112529993Y-71745001D01*
X112529993Y-71745001D02*
X112549994Y-71725000D01*
G04 #@! TO.N,Net-(C2-Pad2)*
X109974999Y-73695001D02*
X109870000Y-73800000D01*
X111325001Y-73695001D02*
X109974999Y-73695001D01*
G04 #@! TO.N,Net-(R11-Pad1)*
X109614999Y-73045001D02*
X109530000Y-73130000D01*
X111325001Y-73045001D02*
X109614999Y-73045001D01*
G04 #@! TD*
M02*
