G04 #@! TF.GenerationSoftware,KiCad,Pcbnew,5.0.0-fee4fd1~65~ubuntu17.10.1*
G04 #@! TF.CreationDate,2018-10-24T15:11:59-07:00*
G04 #@! TF.ProjectId,instrumentationamp,696E737472756D656E746174696F6E61,rev?*
G04 #@! TF.SameCoordinates,Original*
G04 #@! TF.FileFunction,Copper,L2,Bot,Signal*
G04 #@! TF.FilePolarity,Positive*
%FSLAX46Y46*%
G04 Gerber Fmt 4.6, Leading zero omitted, Abs format (unit mm)*
G04 Created by KiCad (PCBNEW 5.0.0-fee4fd1~65~ubuntu17.10.1) date Wed Oct 24 15:11:59 2018*
%MOMM*%
%LPD*%
G01*
G04 APERTURE LIST*
G04 #@! TA.AperFunction,SMDPad,CuDef*
%ADD10R,1.450000X0.450000*%
G04 #@! TD*
G04 #@! TA.AperFunction,ViaPad*
%ADD11C,0.508000*%
G04 #@! TD*
G04 #@! TA.AperFunction,Conductor*
%ADD12C,0.152400*%
G04 #@! TD*
G04 APERTURE END LIST*
D10*
G04 #@! TO.P,U1,1*
G04 #@! TO.N,Net-(R10-Pad2)*
X105425001Y-74345001D03*
G04 #@! TO.P,U1,2*
G04 #@! TO.N,Net-(R4-Pad1)*
X105425001Y-73695001D03*
G04 #@! TO.P,U1,3*
G04 #@! TO.N,Net-(R5-Pad1)*
X105425001Y-73045001D03*
G04 #@! TO.P,U1,4*
G04 #@! TO.N,VCC*
X105425001Y-72395001D03*
G04 #@! TO.P,U1,5*
G04 #@! TO.N,Net-(TP2-Pad1)*
X105425001Y-71745001D03*
G04 #@! TO.P,U1,6*
G04 #@! TO.N,Net-(R1-Pad2)*
X105425001Y-71095001D03*
G04 #@! TO.P,U1,7*
G04 #@! TO.N,Net-(R3-Pad1)*
X105425001Y-70445001D03*
G04 #@! TO.P,U1,8*
G04 #@! TO.N,Net-(R2-Pad2)*
X111325001Y-70445001D03*
G04 #@! TO.P,U1,9*
G04 #@! TO.N,Net-(R1-Pad1)*
X111325001Y-71095001D03*
G04 #@! TO.P,U1,10*
G04 #@! TO.N,Net-(TP1-Pad1)*
X111325001Y-71745001D03*
G04 #@! TO.P,U1,11*
G04 #@! TO.N,GND*
X111325001Y-72395001D03*
G04 #@! TO.P,U1,12*
G04 #@! TO.N,Net-(R10-Pad2)*
X111325001Y-73045001D03*
G04 #@! TO.P,U1,13*
G04 #@! TO.N,Net-(R8-Pad1)*
X111325001Y-73695001D03*
G04 #@! TO.P,U1,14*
G04 #@! TO.N,/vout*
X111325001Y-74345001D03*
G04 #@! TD*
D11*
G04 #@! TO.N,VCC*
X109450000Y-74800000D03*
G04 #@! TO.N,GND*
X112525000Y-72525000D03*
X112525000Y-75075000D03*
X106075000Y-75950000D03*
G04 #@! TO.N,Net-(R1-Pad1)*
X109900000Y-71380000D03*
G04 #@! TO.N,Net-(R1-Pad2)*
X107000000Y-71380000D03*
G04 #@! TO.N,Net-(R2-Pad2)*
X110025000Y-70550000D03*
G04 #@! TO.N,Net-(R3-Pad1)*
X109900000Y-72300000D03*
X107000000Y-70550000D03*
G04 #@! TO.N,Net-(R4-Pad1)*
X106800000Y-73700000D03*
G04 #@! TO.N,Net-(R5-Pad1)*
X106900000Y-72700000D03*
G04 #@! TO.N,Net-(R8-Pad1)*
X109500000Y-73750000D03*
X105300000Y-75075000D03*
G04 #@! TO.N,Net-(TP1-Pad1)*
X112549994Y-71725000D03*
G04 #@! TO.N,Net-(TP2-Pad1)*
X104150000Y-71725000D03*
G04 #@! TO.N,/vout*
X108674994Y-77225000D03*
G04 #@! TO.N,Net-(R10-Pad2)*
X106809414Y-74661434D03*
G04 #@! TD*
D12*
G04 #@! TO.N,VCC*
X109196001Y-75053999D02*
X109450000Y-74800000D01*
X106517399Y-75667399D02*
X108582601Y-75667399D01*
X106217399Y-75367399D02*
X106517399Y-75667399D01*
X105843351Y-75367399D02*
X106217399Y-75367399D01*
X108582601Y-75667399D02*
X109196001Y-75053999D01*
X104175000Y-72767602D02*
X104175000Y-75350000D01*
X104547601Y-72395001D02*
X104175000Y-72767602D01*
X104175000Y-75350000D02*
X104443351Y-75618351D01*
X105592399Y-75618351D02*
X105843351Y-75367399D01*
X105425001Y-72395001D02*
X104547601Y-72395001D01*
X104443351Y-75618351D02*
X105592399Y-75618351D01*
G04 #@! TO.N,GND*
X112395001Y-72395001D02*
X112525000Y-72525000D01*
X111325001Y-72395001D02*
X112395001Y-72395001D01*
X106328999Y-76203999D02*
X106075000Y-75950000D01*
X109842399Y-77757601D02*
X107882601Y-77757601D01*
X112525000Y-75075000D02*
X109842399Y-77757601D01*
X107882601Y-77757601D02*
X106328999Y-76203999D01*
G04 #@! TO.N,Net-(R1-Pad1)*
X111325001Y-71095001D02*
X110184999Y-71095001D01*
X110184999Y-71095001D02*
X109900000Y-71380000D01*
G04 #@! TO.N,Net-(R1-Pad2)*
X105425001Y-71095001D02*
X106715001Y-71095001D01*
X106715001Y-71095001D02*
X107000000Y-71380000D01*
G04 #@! TO.N,Net-(R2-Pad2)*
X111325001Y-70445001D02*
X110045001Y-70445001D01*
X110045001Y-70445001D02*
X110000000Y-70400000D01*
G04 #@! TO.N,Net-(R3-Pad1)*
X107000000Y-70400000D02*
X108900000Y-70400000D01*
X109200000Y-71600000D02*
X109900000Y-72300000D01*
X106954999Y-70445001D02*
X107000000Y-70400000D01*
X105425001Y-70445001D02*
X106954999Y-70445001D01*
X109200000Y-70700000D02*
X109200000Y-71600000D01*
X108900000Y-70400000D02*
X109200000Y-70700000D01*
G04 #@! TO.N,Net-(R4-Pad1)*
X105425001Y-73695001D02*
X106795001Y-73695001D01*
X106795001Y-73695001D02*
X106800000Y-73700000D01*
G04 #@! TO.N,Net-(R5-Pad1)*
X106554999Y-73045001D02*
X105425001Y-73045001D01*
X106900000Y-72700000D02*
X106554999Y-73045001D01*
G04 #@! TO.N,Net-(R10-Pad2)*
X111325001Y-73045001D02*
X109300000Y-73045001D01*
G04 #@! TO.N,Net-(R8-Pad1)*
X111325001Y-73695001D02*
X109554999Y-73695001D01*
X109554999Y-73695001D02*
X109500000Y-73750000D01*
X105450000Y-74925000D02*
X105300000Y-75075000D01*
X106345317Y-74925000D02*
X105450000Y-74925000D01*
X109500000Y-73750000D02*
X107887412Y-75362588D01*
X106782905Y-75362588D02*
X106345317Y-74925000D01*
X107887412Y-75362588D02*
X106782905Y-75362588D01*
G04 #@! TO.N,Net-(TP1-Pad1)*
X111325001Y-71745001D02*
X112529993Y-71745001D01*
X112529993Y-71745001D02*
X112549994Y-71725000D01*
G04 #@! TO.N,Net-(TP2-Pad1)*
X105425001Y-71745001D02*
X104170001Y-71745001D01*
X104170001Y-71745001D02*
X104150000Y-71725000D01*
G04 #@! TO.N,/vout*
X111325001Y-74345001D02*
X111325001Y-74722401D01*
X111325001Y-74722401D02*
X108822402Y-77225000D01*
X108822402Y-77225000D02*
X108674994Y-77225000D01*
G04 #@! TO.N,Net-(R10-Pad2)*
X109300000Y-73045001D02*
X108000000Y-74345001D01*
X106302401Y-74345001D02*
X105425001Y-74345001D01*
X106800000Y-74345001D02*
X106302401Y-74345001D01*
X108000000Y-74345001D02*
X106800000Y-74345001D01*
X106800000Y-74345001D02*
X106765789Y-74379212D01*
X106765789Y-74617809D02*
X106809414Y-74661434D01*
X106765789Y-74379212D02*
X106765789Y-74617809D01*
G04 #@! TD*
M02*
