G04 #@! TF.GenerationSoftware,KiCad,Pcbnew,5.0.0-fee4fd1~65~ubuntu17.10.1*
G04 #@! TF.CreationDate,2018-10-24T15:11:59-07:00*
G04 #@! TF.ProjectId,instrumentationamp,696E737472756D656E746174696F6E61,rev?*
G04 #@! TF.SameCoordinates,Original*
G04 #@! TF.FileFunction,Copper,L1,Top,Signal*
G04 #@! TF.FilePolarity,Positive*
%FSLAX46Y46*%
G04 Gerber Fmt 4.6, Leading zero omitted, Abs format (unit mm)*
G04 Created by KiCad (PCBNEW 5.0.0-fee4fd1~65~ubuntu17.10.1) date Wed Oct 24 15:11:59 2018*
%MOMM*%
%LPD*%
G01*
G04 APERTURE LIST*
G04 #@! TA.AperFunction,Conductor*
%ADD10C,0.100000*%
G04 #@! TD*
G04 #@! TA.AperFunction,SMDPad,CuDef*
%ADD11C,0.600000*%
G04 #@! TD*
G04 #@! TA.AperFunction,SMDPad,CuDef*
%ADD12C,0.875000*%
G04 #@! TD*
G04 #@! TA.AperFunction,SMDPad,CuDef*
%ADD13R,1.000000X1.000000*%
G04 #@! TD*
G04 #@! TA.AperFunction,ViaPad*
%ADD14C,0.508000*%
G04 #@! TD*
G04 #@! TA.AperFunction,Conductor*
%ADD15C,0.152400*%
G04 #@! TD*
G04 APERTURE END LIST*
D10*
G04 #@! TO.N,/vout*
G04 #@! TO.C,R10*
G36*
X108744703Y-75480722D02*
X108759264Y-75482882D01*
X108773543Y-75486459D01*
X108787403Y-75491418D01*
X108800710Y-75497712D01*
X108813336Y-75505280D01*
X108825159Y-75514048D01*
X108836066Y-75523934D01*
X108845952Y-75534841D01*
X108854720Y-75546664D01*
X108862288Y-75559290D01*
X108868582Y-75572597D01*
X108873541Y-75586457D01*
X108877118Y-75600736D01*
X108879278Y-75615297D01*
X108880000Y-75630000D01*
X108880000Y-75970000D01*
X108879278Y-75984703D01*
X108877118Y-75999264D01*
X108873541Y-76013543D01*
X108868582Y-76027403D01*
X108862288Y-76040710D01*
X108854720Y-76053336D01*
X108845952Y-76065159D01*
X108836066Y-76076066D01*
X108825159Y-76085952D01*
X108813336Y-76094720D01*
X108800710Y-76102288D01*
X108787403Y-76108582D01*
X108773543Y-76113541D01*
X108759264Y-76117118D01*
X108744703Y-76119278D01*
X108730000Y-76120000D01*
X108430000Y-76120000D01*
X108415297Y-76119278D01*
X108400736Y-76117118D01*
X108386457Y-76113541D01*
X108372597Y-76108582D01*
X108359290Y-76102288D01*
X108346664Y-76094720D01*
X108334841Y-76085952D01*
X108323934Y-76076066D01*
X108314048Y-76065159D01*
X108305280Y-76053336D01*
X108297712Y-76040710D01*
X108291418Y-76027403D01*
X108286459Y-76013543D01*
X108282882Y-75999264D01*
X108280722Y-75984703D01*
X108280000Y-75970000D01*
X108280000Y-75630000D01*
X108280722Y-75615297D01*
X108282882Y-75600736D01*
X108286459Y-75586457D01*
X108291418Y-75572597D01*
X108297712Y-75559290D01*
X108305280Y-75546664D01*
X108314048Y-75534841D01*
X108323934Y-75523934D01*
X108334841Y-75514048D01*
X108346664Y-75505280D01*
X108359290Y-75497712D01*
X108372597Y-75491418D01*
X108386457Y-75486459D01*
X108400736Y-75482882D01*
X108415297Y-75480722D01*
X108430000Y-75480000D01*
X108730000Y-75480000D01*
X108744703Y-75480722D01*
X108744703Y-75480722D01*
G37*
D11*
G04 #@! TD*
G04 #@! TO.P,R10,1*
G04 #@! TO.N,/vout*
X108580000Y-75800000D03*
D10*
G04 #@! TO.N,Net-(R10-Pad2)*
G04 #@! TO.C,R10*
G36*
X107784703Y-75480722D02*
X107799264Y-75482882D01*
X107813543Y-75486459D01*
X107827403Y-75491418D01*
X107840710Y-75497712D01*
X107853336Y-75505280D01*
X107865159Y-75514048D01*
X107876066Y-75523934D01*
X107885952Y-75534841D01*
X107894720Y-75546664D01*
X107902288Y-75559290D01*
X107908582Y-75572597D01*
X107913541Y-75586457D01*
X107917118Y-75600736D01*
X107919278Y-75615297D01*
X107920000Y-75630000D01*
X107920000Y-75970000D01*
X107919278Y-75984703D01*
X107917118Y-75999264D01*
X107913541Y-76013543D01*
X107908582Y-76027403D01*
X107902288Y-76040710D01*
X107894720Y-76053336D01*
X107885952Y-76065159D01*
X107876066Y-76076066D01*
X107865159Y-76085952D01*
X107853336Y-76094720D01*
X107840710Y-76102288D01*
X107827403Y-76108582D01*
X107813543Y-76113541D01*
X107799264Y-76117118D01*
X107784703Y-76119278D01*
X107770000Y-76120000D01*
X107470000Y-76120000D01*
X107455297Y-76119278D01*
X107440736Y-76117118D01*
X107426457Y-76113541D01*
X107412597Y-76108582D01*
X107399290Y-76102288D01*
X107386664Y-76094720D01*
X107374841Y-76085952D01*
X107363934Y-76076066D01*
X107354048Y-76065159D01*
X107345280Y-76053336D01*
X107337712Y-76040710D01*
X107331418Y-76027403D01*
X107326459Y-76013543D01*
X107322882Y-75999264D01*
X107320722Y-75984703D01*
X107320000Y-75970000D01*
X107320000Y-75630000D01*
X107320722Y-75615297D01*
X107322882Y-75600736D01*
X107326459Y-75586457D01*
X107331418Y-75572597D01*
X107337712Y-75559290D01*
X107345280Y-75546664D01*
X107354048Y-75534841D01*
X107363934Y-75523934D01*
X107374841Y-75514048D01*
X107386664Y-75505280D01*
X107399290Y-75497712D01*
X107412597Y-75491418D01*
X107426457Y-75486459D01*
X107440736Y-75482882D01*
X107455297Y-75480722D01*
X107470000Y-75480000D01*
X107770000Y-75480000D01*
X107784703Y-75480722D01*
X107784703Y-75480722D01*
G37*
D11*
G04 #@! TD*
G04 #@! TO.P,R10,2*
G04 #@! TO.N,Net-(R10-Pad2)*
X107620000Y-75800000D03*
D10*
G04 #@! TO.N,VCC*
G04 #@! TO.C,C1*
G36*
X110202691Y-75251053D02*
X110223926Y-75254203D01*
X110244750Y-75259419D01*
X110264962Y-75266651D01*
X110284368Y-75275830D01*
X110302781Y-75286866D01*
X110320024Y-75299654D01*
X110335930Y-75314070D01*
X110350346Y-75329976D01*
X110363134Y-75347219D01*
X110374170Y-75365632D01*
X110383349Y-75385038D01*
X110390581Y-75405250D01*
X110395797Y-75426074D01*
X110398947Y-75447309D01*
X110400000Y-75468750D01*
X110400000Y-75981250D01*
X110398947Y-76002691D01*
X110395797Y-76023926D01*
X110390581Y-76044750D01*
X110383349Y-76064962D01*
X110374170Y-76084368D01*
X110363134Y-76102781D01*
X110350346Y-76120024D01*
X110335930Y-76135930D01*
X110320024Y-76150346D01*
X110302781Y-76163134D01*
X110284368Y-76174170D01*
X110264962Y-76183349D01*
X110244750Y-76190581D01*
X110223926Y-76195797D01*
X110202691Y-76198947D01*
X110181250Y-76200000D01*
X109743750Y-76200000D01*
X109722309Y-76198947D01*
X109701074Y-76195797D01*
X109680250Y-76190581D01*
X109660038Y-76183349D01*
X109640632Y-76174170D01*
X109622219Y-76163134D01*
X109604976Y-76150346D01*
X109589070Y-76135930D01*
X109574654Y-76120024D01*
X109561866Y-76102781D01*
X109550830Y-76084368D01*
X109541651Y-76064962D01*
X109534419Y-76044750D01*
X109529203Y-76023926D01*
X109526053Y-76002691D01*
X109525000Y-75981250D01*
X109525000Y-75468750D01*
X109526053Y-75447309D01*
X109529203Y-75426074D01*
X109534419Y-75405250D01*
X109541651Y-75385038D01*
X109550830Y-75365632D01*
X109561866Y-75347219D01*
X109574654Y-75329976D01*
X109589070Y-75314070D01*
X109604976Y-75299654D01*
X109622219Y-75286866D01*
X109640632Y-75275830D01*
X109660038Y-75266651D01*
X109680250Y-75259419D01*
X109701074Y-75254203D01*
X109722309Y-75251053D01*
X109743750Y-75250000D01*
X110181250Y-75250000D01*
X110202691Y-75251053D01*
X110202691Y-75251053D01*
G37*
D12*
G04 #@! TD*
G04 #@! TO.P,C1,1*
G04 #@! TO.N,VCC*
X109962500Y-75725000D03*
D10*
G04 #@! TO.N,GND*
G04 #@! TO.C,C1*
G36*
X111777691Y-75251053D02*
X111798926Y-75254203D01*
X111819750Y-75259419D01*
X111839962Y-75266651D01*
X111859368Y-75275830D01*
X111877781Y-75286866D01*
X111895024Y-75299654D01*
X111910930Y-75314070D01*
X111925346Y-75329976D01*
X111938134Y-75347219D01*
X111949170Y-75365632D01*
X111958349Y-75385038D01*
X111965581Y-75405250D01*
X111970797Y-75426074D01*
X111973947Y-75447309D01*
X111975000Y-75468750D01*
X111975000Y-75981250D01*
X111973947Y-76002691D01*
X111970797Y-76023926D01*
X111965581Y-76044750D01*
X111958349Y-76064962D01*
X111949170Y-76084368D01*
X111938134Y-76102781D01*
X111925346Y-76120024D01*
X111910930Y-76135930D01*
X111895024Y-76150346D01*
X111877781Y-76163134D01*
X111859368Y-76174170D01*
X111839962Y-76183349D01*
X111819750Y-76190581D01*
X111798926Y-76195797D01*
X111777691Y-76198947D01*
X111756250Y-76200000D01*
X111318750Y-76200000D01*
X111297309Y-76198947D01*
X111276074Y-76195797D01*
X111255250Y-76190581D01*
X111235038Y-76183349D01*
X111215632Y-76174170D01*
X111197219Y-76163134D01*
X111179976Y-76150346D01*
X111164070Y-76135930D01*
X111149654Y-76120024D01*
X111136866Y-76102781D01*
X111125830Y-76084368D01*
X111116651Y-76064962D01*
X111109419Y-76044750D01*
X111104203Y-76023926D01*
X111101053Y-76002691D01*
X111100000Y-75981250D01*
X111100000Y-75468750D01*
X111101053Y-75447309D01*
X111104203Y-75426074D01*
X111109419Y-75405250D01*
X111116651Y-75385038D01*
X111125830Y-75365632D01*
X111136866Y-75347219D01*
X111149654Y-75329976D01*
X111164070Y-75314070D01*
X111179976Y-75299654D01*
X111197219Y-75286866D01*
X111215632Y-75275830D01*
X111235038Y-75266651D01*
X111255250Y-75259419D01*
X111276074Y-75254203D01*
X111297309Y-75251053D01*
X111318750Y-75250000D01*
X111756250Y-75250000D01*
X111777691Y-75251053D01*
X111777691Y-75251053D01*
G37*
D12*
G04 #@! TD*
G04 #@! TO.P,C1,2*
G04 #@! TO.N,GND*
X111537500Y-75725000D03*
D10*
G04 #@! TO.N,Net-(R1-Pad1)*
G04 #@! TO.C,R1*
G36*
X109144703Y-70980722D02*
X109159264Y-70982882D01*
X109173543Y-70986459D01*
X109187403Y-70991418D01*
X109200710Y-70997712D01*
X109213336Y-71005280D01*
X109225159Y-71014048D01*
X109236066Y-71023934D01*
X109245952Y-71034841D01*
X109254720Y-71046664D01*
X109262288Y-71059290D01*
X109268582Y-71072597D01*
X109273541Y-71086457D01*
X109277118Y-71100736D01*
X109279278Y-71115297D01*
X109280000Y-71130000D01*
X109280000Y-71470000D01*
X109279278Y-71484703D01*
X109277118Y-71499264D01*
X109273541Y-71513543D01*
X109268582Y-71527403D01*
X109262288Y-71540710D01*
X109254720Y-71553336D01*
X109245952Y-71565159D01*
X109236066Y-71576066D01*
X109225159Y-71585952D01*
X109213336Y-71594720D01*
X109200710Y-71602288D01*
X109187403Y-71608582D01*
X109173543Y-71613541D01*
X109159264Y-71617118D01*
X109144703Y-71619278D01*
X109130000Y-71620000D01*
X108830000Y-71620000D01*
X108815297Y-71619278D01*
X108800736Y-71617118D01*
X108786457Y-71613541D01*
X108772597Y-71608582D01*
X108759290Y-71602288D01*
X108746664Y-71594720D01*
X108734841Y-71585952D01*
X108723934Y-71576066D01*
X108714048Y-71565159D01*
X108705280Y-71553336D01*
X108697712Y-71540710D01*
X108691418Y-71527403D01*
X108686459Y-71513543D01*
X108682882Y-71499264D01*
X108680722Y-71484703D01*
X108680000Y-71470000D01*
X108680000Y-71130000D01*
X108680722Y-71115297D01*
X108682882Y-71100736D01*
X108686459Y-71086457D01*
X108691418Y-71072597D01*
X108697712Y-71059290D01*
X108705280Y-71046664D01*
X108714048Y-71034841D01*
X108723934Y-71023934D01*
X108734841Y-71014048D01*
X108746664Y-71005280D01*
X108759290Y-70997712D01*
X108772597Y-70991418D01*
X108786457Y-70986459D01*
X108800736Y-70982882D01*
X108815297Y-70980722D01*
X108830000Y-70980000D01*
X109130000Y-70980000D01*
X109144703Y-70980722D01*
X109144703Y-70980722D01*
G37*
D11*
G04 #@! TD*
G04 #@! TO.P,R1,1*
G04 #@! TO.N,Net-(R1-Pad1)*
X108980000Y-71300000D03*
D10*
G04 #@! TO.N,Net-(R1-Pad2)*
G04 #@! TO.C,R1*
G36*
X108184703Y-70980722D02*
X108199264Y-70982882D01*
X108213543Y-70986459D01*
X108227403Y-70991418D01*
X108240710Y-70997712D01*
X108253336Y-71005280D01*
X108265159Y-71014048D01*
X108276066Y-71023934D01*
X108285952Y-71034841D01*
X108294720Y-71046664D01*
X108302288Y-71059290D01*
X108308582Y-71072597D01*
X108313541Y-71086457D01*
X108317118Y-71100736D01*
X108319278Y-71115297D01*
X108320000Y-71130000D01*
X108320000Y-71470000D01*
X108319278Y-71484703D01*
X108317118Y-71499264D01*
X108313541Y-71513543D01*
X108308582Y-71527403D01*
X108302288Y-71540710D01*
X108294720Y-71553336D01*
X108285952Y-71565159D01*
X108276066Y-71576066D01*
X108265159Y-71585952D01*
X108253336Y-71594720D01*
X108240710Y-71602288D01*
X108227403Y-71608582D01*
X108213543Y-71613541D01*
X108199264Y-71617118D01*
X108184703Y-71619278D01*
X108170000Y-71620000D01*
X107870000Y-71620000D01*
X107855297Y-71619278D01*
X107840736Y-71617118D01*
X107826457Y-71613541D01*
X107812597Y-71608582D01*
X107799290Y-71602288D01*
X107786664Y-71594720D01*
X107774841Y-71585952D01*
X107763934Y-71576066D01*
X107754048Y-71565159D01*
X107745280Y-71553336D01*
X107737712Y-71540710D01*
X107731418Y-71527403D01*
X107726459Y-71513543D01*
X107722882Y-71499264D01*
X107720722Y-71484703D01*
X107720000Y-71470000D01*
X107720000Y-71130000D01*
X107720722Y-71115297D01*
X107722882Y-71100736D01*
X107726459Y-71086457D01*
X107731418Y-71072597D01*
X107737712Y-71059290D01*
X107745280Y-71046664D01*
X107754048Y-71034841D01*
X107763934Y-71023934D01*
X107774841Y-71014048D01*
X107786664Y-71005280D01*
X107799290Y-70997712D01*
X107812597Y-70991418D01*
X107826457Y-70986459D01*
X107840736Y-70982882D01*
X107855297Y-70980722D01*
X107870000Y-70980000D01*
X108170000Y-70980000D01*
X108184703Y-70980722D01*
X108184703Y-70980722D01*
G37*
D11*
G04 #@! TD*
G04 #@! TO.P,R1,2*
G04 #@! TO.N,Net-(R1-Pad2)*
X108020000Y-71300000D03*
D10*
G04 #@! TO.N,Net-(R1-Pad1)*
G04 #@! TO.C,R2*
G36*
X111084703Y-71280722D02*
X111099264Y-71282882D01*
X111113543Y-71286459D01*
X111127403Y-71291418D01*
X111140710Y-71297712D01*
X111153336Y-71305280D01*
X111165159Y-71314048D01*
X111176066Y-71323934D01*
X111185952Y-71334841D01*
X111194720Y-71346664D01*
X111202288Y-71359290D01*
X111208582Y-71372597D01*
X111213541Y-71386457D01*
X111217118Y-71400736D01*
X111219278Y-71415297D01*
X111220000Y-71430000D01*
X111220000Y-71730000D01*
X111219278Y-71744703D01*
X111217118Y-71759264D01*
X111213541Y-71773543D01*
X111208582Y-71787403D01*
X111202288Y-71800710D01*
X111194720Y-71813336D01*
X111185952Y-71825159D01*
X111176066Y-71836066D01*
X111165159Y-71845952D01*
X111153336Y-71854720D01*
X111140710Y-71862288D01*
X111127403Y-71868582D01*
X111113543Y-71873541D01*
X111099264Y-71877118D01*
X111084703Y-71879278D01*
X111070000Y-71880000D01*
X110730000Y-71880000D01*
X110715297Y-71879278D01*
X110700736Y-71877118D01*
X110686457Y-71873541D01*
X110672597Y-71868582D01*
X110659290Y-71862288D01*
X110646664Y-71854720D01*
X110634841Y-71845952D01*
X110623934Y-71836066D01*
X110614048Y-71825159D01*
X110605280Y-71813336D01*
X110597712Y-71800710D01*
X110591418Y-71787403D01*
X110586459Y-71773543D01*
X110582882Y-71759264D01*
X110580722Y-71744703D01*
X110580000Y-71730000D01*
X110580000Y-71430000D01*
X110580722Y-71415297D01*
X110582882Y-71400736D01*
X110586459Y-71386457D01*
X110591418Y-71372597D01*
X110597712Y-71359290D01*
X110605280Y-71346664D01*
X110614048Y-71334841D01*
X110623934Y-71323934D01*
X110634841Y-71314048D01*
X110646664Y-71305280D01*
X110659290Y-71297712D01*
X110672597Y-71291418D01*
X110686457Y-71286459D01*
X110700736Y-71282882D01*
X110715297Y-71280722D01*
X110730000Y-71280000D01*
X111070000Y-71280000D01*
X111084703Y-71280722D01*
X111084703Y-71280722D01*
G37*
D11*
G04 #@! TD*
G04 #@! TO.P,R2,1*
G04 #@! TO.N,Net-(R1-Pad1)*
X110900000Y-71580000D03*
D10*
G04 #@! TO.N,Net-(R2-Pad2)*
G04 #@! TO.C,R2*
G36*
X111084703Y-70320722D02*
X111099264Y-70322882D01*
X111113543Y-70326459D01*
X111127403Y-70331418D01*
X111140710Y-70337712D01*
X111153336Y-70345280D01*
X111165159Y-70354048D01*
X111176066Y-70363934D01*
X111185952Y-70374841D01*
X111194720Y-70386664D01*
X111202288Y-70399290D01*
X111208582Y-70412597D01*
X111213541Y-70426457D01*
X111217118Y-70440736D01*
X111219278Y-70455297D01*
X111220000Y-70470000D01*
X111220000Y-70770000D01*
X111219278Y-70784703D01*
X111217118Y-70799264D01*
X111213541Y-70813543D01*
X111208582Y-70827403D01*
X111202288Y-70840710D01*
X111194720Y-70853336D01*
X111185952Y-70865159D01*
X111176066Y-70876066D01*
X111165159Y-70885952D01*
X111153336Y-70894720D01*
X111140710Y-70902288D01*
X111127403Y-70908582D01*
X111113543Y-70913541D01*
X111099264Y-70917118D01*
X111084703Y-70919278D01*
X111070000Y-70920000D01*
X110730000Y-70920000D01*
X110715297Y-70919278D01*
X110700736Y-70917118D01*
X110686457Y-70913541D01*
X110672597Y-70908582D01*
X110659290Y-70902288D01*
X110646664Y-70894720D01*
X110634841Y-70885952D01*
X110623934Y-70876066D01*
X110614048Y-70865159D01*
X110605280Y-70853336D01*
X110597712Y-70840710D01*
X110591418Y-70827403D01*
X110586459Y-70813543D01*
X110582882Y-70799264D01*
X110580722Y-70784703D01*
X110580000Y-70770000D01*
X110580000Y-70470000D01*
X110580722Y-70455297D01*
X110582882Y-70440736D01*
X110586459Y-70426457D01*
X110591418Y-70412597D01*
X110597712Y-70399290D01*
X110605280Y-70386664D01*
X110614048Y-70374841D01*
X110623934Y-70363934D01*
X110634841Y-70354048D01*
X110646664Y-70345280D01*
X110659290Y-70337712D01*
X110672597Y-70331418D01*
X110686457Y-70326459D01*
X110700736Y-70322882D01*
X110715297Y-70320722D01*
X110730000Y-70320000D01*
X111070000Y-70320000D01*
X111084703Y-70320722D01*
X111084703Y-70320722D01*
G37*
D11*
G04 #@! TD*
G04 #@! TO.P,R2,2*
G04 #@! TO.N,Net-(R2-Pad2)*
X110900000Y-70620000D03*
D10*
G04 #@! TO.N,Net-(R1-Pad2)*
G04 #@! TO.C,R3*
G36*
X105984703Y-71280722D02*
X105999264Y-71282882D01*
X106013543Y-71286459D01*
X106027403Y-71291418D01*
X106040710Y-71297712D01*
X106053336Y-71305280D01*
X106065159Y-71314048D01*
X106076066Y-71323934D01*
X106085952Y-71334841D01*
X106094720Y-71346664D01*
X106102288Y-71359290D01*
X106108582Y-71372597D01*
X106113541Y-71386457D01*
X106117118Y-71400736D01*
X106119278Y-71415297D01*
X106120000Y-71430000D01*
X106120000Y-71730000D01*
X106119278Y-71744703D01*
X106117118Y-71759264D01*
X106113541Y-71773543D01*
X106108582Y-71787403D01*
X106102288Y-71800710D01*
X106094720Y-71813336D01*
X106085952Y-71825159D01*
X106076066Y-71836066D01*
X106065159Y-71845952D01*
X106053336Y-71854720D01*
X106040710Y-71862288D01*
X106027403Y-71868582D01*
X106013543Y-71873541D01*
X105999264Y-71877118D01*
X105984703Y-71879278D01*
X105970000Y-71880000D01*
X105630000Y-71880000D01*
X105615297Y-71879278D01*
X105600736Y-71877118D01*
X105586457Y-71873541D01*
X105572597Y-71868582D01*
X105559290Y-71862288D01*
X105546664Y-71854720D01*
X105534841Y-71845952D01*
X105523934Y-71836066D01*
X105514048Y-71825159D01*
X105505280Y-71813336D01*
X105497712Y-71800710D01*
X105491418Y-71787403D01*
X105486459Y-71773543D01*
X105482882Y-71759264D01*
X105480722Y-71744703D01*
X105480000Y-71730000D01*
X105480000Y-71430000D01*
X105480722Y-71415297D01*
X105482882Y-71400736D01*
X105486459Y-71386457D01*
X105491418Y-71372597D01*
X105497712Y-71359290D01*
X105505280Y-71346664D01*
X105514048Y-71334841D01*
X105523934Y-71323934D01*
X105534841Y-71314048D01*
X105546664Y-71305280D01*
X105559290Y-71297712D01*
X105572597Y-71291418D01*
X105586457Y-71286459D01*
X105600736Y-71282882D01*
X105615297Y-71280722D01*
X105630000Y-71280000D01*
X105970000Y-71280000D01*
X105984703Y-71280722D01*
X105984703Y-71280722D01*
G37*
D11*
G04 #@! TD*
G04 #@! TO.P,R3,2*
G04 #@! TO.N,Net-(R1-Pad2)*
X105800000Y-71580000D03*
D10*
G04 #@! TO.N,Net-(R3-Pad1)*
G04 #@! TO.C,R3*
G36*
X105984703Y-70320722D02*
X105999264Y-70322882D01*
X106013543Y-70326459D01*
X106027403Y-70331418D01*
X106040710Y-70337712D01*
X106053336Y-70345280D01*
X106065159Y-70354048D01*
X106076066Y-70363934D01*
X106085952Y-70374841D01*
X106094720Y-70386664D01*
X106102288Y-70399290D01*
X106108582Y-70412597D01*
X106113541Y-70426457D01*
X106117118Y-70440736D01*
X106119278Y-70455297D01*
X106120000Y-70470000D01*
X106120000Y-70770000D01*
X106119278Y-70784703D01*
X106117118Y-70799264D01*
X106113541Y-70813543D01*
X106108582Y-70827403D01*
X106102288Y-70840710D01*
X106094720Y-70853336D01*
X106085952Y-70865159D01*
X106076066Y-70876066D01*
X106065159Y-70885952D01*
X106053336Y-70894720D01*
X106040710Y-70902288D01*
X106027403Y-70908582D01*
X106013543Y-70913541D01*
X105999264Y-70917118D01*
X105984703Y-70919278D01*
X105970000Y-70920000D01*
X105630000Y-70920000D01*
X105615297Y-70919278D01*
X105600736Y-70917118D01*
X105586457Y-70913541D01*
X105572597Y-70908582D01*
X105559290Y-70902288D01*
X105546664Y-70894720D01*
X105534841Y-70885952D01*
X105523934Y-70876066D01*
X105514048Y-70865159D01*
X105505280Y-70853336D01*
X105497712Y-70840710D01*
X105491418Y-70827403D01*
X105486459Y-70813543D01*
X105482882Y-70799264D01*
X105480722Y-70784703D01*
X105480000Y-70770000D01*
X105480000Y-70470000D01*
X105480722Y-70455297D01*
X105482882Y-70440736D01*
X105486459Y-70426457D01*
X105491418Y-70412597D01*
X105497712Y-70399290D01*
X105505280Y-70386664D01*
X105514048Y-70374841D01*
X105523934Y-70363934D01*
X105534841Y-70354048D01*
X105546664Y-70345280D01*
X105559290Y-70337712D01*
X105572597Y-70331418D01*
X105586457Y-70326459D01*
X105600736Y-70322882D01*
X105615297Y-70320722D01*
X105630000Y-70320000D01*
X105970000Y-70320000D01*
X105984703Y-70320722D01*
X105984703Y-70320722D01*
G37*
D11*
G04 #@! TD*
G04 #@! TO.P,R3,1*
G04 #@! TO.N,Net-(R3-Pad1)*
X105800000Y-70620000D03*
D10*
G04 #@! TO.N,Net-(R2-Pad2)*
G04 #@! TO.C,R4*
G36*
X108744703Y-73180722D02*
X108759264Y-73182882D01*
X108773543Y-73186459D01*
X108787403Y-73191418D01*
X108800710Y-73197712D01*
X108813336Y-73205280D01*
X108825159Y-73214048D01*
X108836066Y-73223934D01*
X108845952Y-73234841D01*
X108854720Y-73246664D01*
X108862288Y-73259290D01*
X108868582Y-73272597D01*
X108873541Y-73286457D01*
X108877118Y-73300736D01*
X108879278Y-73315297D01*
X108880000Y-73330000D01*
X108880000Y-73670000D01*
X108879278Y-73684703D01*
X108877118Y-73699264D01*
X108873541Y-73713543D01*
X108868582Y-73727403D01*
X108862288Y-73740710D01*
X108854720Y-73753336D01*
X108845952Y-73765159D01*
X108836066Y-73776066D01*
X108825159Y-73785952D01*
X108813336Y-73794720D01*
X108800710Y-73802288D01*
X108787403Y-73808582D01*
X108773543Y-73813541D01*
X108759264Y-73817118D01*
X108744703Y-73819278D01*
X108730000Y-73820000D01*
X108430000Y-73820000D01*
X108415297Y-73819278D01*
X108400736Y-73817118D01*
X108386457Y-73813541D01*
X108372597Y-73808582D01*
X108359290Y-73802288D01*
X108346664Y-73794720D01*
X108334841Y-73785952D01*
X108323934Y-73776066D01*
X108314048Y-73765159D01*
X108305280Y-73753336D01*
X108297712Y-73740710D01*
X108291418Y-73727403D01*
X108286459Y-73713543D01*
X108282882Y-73699264D01*
X108280722Y-73684703D01*
X108280000Y-73670000D01*
X108280000Y-73330000D01*
X108280722Y-73315297D01*
X108282882Y-73300736D01*
X108286459Y-73286457D01*
X108291418Y-73272597D01*
X108297712Y-73259290D01*
X108305280Y-73246664D01*
X108314048Y-73234841D01*
X108323934Y-73223934D01*
X108334841Y-73214048D01*
X108346664Y-73205280D01*
X108359290Y-73197712D01*
X108372597Y-73191418D01*
X108386457Y-73186459D01*
X108400736Y-73182882D01*
X108415297Y-73180722D01*
X108430000Y-73180000D01*
X108730000Y-73180000D01*
X108744703Y-73180722D01*
X108744703Y-73180722D01*
G37*
D11*
G04 #@! TD*
G04 #@! TO.P,R4,2*
G04 #@! TO.N,Net-(R2-Pad2)*
X108580000Y-73500000D03*
D10*
G04 #@! TO.N,Net-(R4-Pad1)*
G04 #@! TO.C,R4*
G36*
X107784703Y-73180722D02*
X107799264Y-73182882D01*
X107813543Y-73186459D01*
X107827403Y-73191418D01*
X107840710Y-73197712D01*
X107853336Y-73205280D01*
X107865159Y-73214048D01*
X107876066Y-73223934D01*
X107885952Y-73234841D01*
X107894720Y-73246664D01*
X107902288Y-73259290D01*
X107908582Y-73272597D01*
X107913541Y-73286457D01*
X107917118Y-73300736D01*
X107919278Y-73315297D01*
X107920000Y-73330000D01*
X107920000Y-73670000D01*
X107919278Y-73684703D01*
X107917118Y-73699264D01*
X107913541Y-73713543D01*
X107908582Y-73727403D01*
X107902288Y-73740710D01*
X107894720Y-73753336D01*
X107885952Y-73765159D01*
X107876066Y-73776066D01*
X107865159Y-73785952D01*
X107853336Y-73794720D01*
X107840710Y-73802288D01*
X107827403Y-73808582D01*
X107813543Y-73813541D01*
X107799264Y-73817118D01*
X107784703Y-73819278D01*
X107770000Y-73820000D01*
X107470000Y-73820000D01*
X107455297Y-73819278D01*
X107440736Y-73817118D01*
X107426457Y-73813541D01*
X107412597Y-73808582D01*
X107399290Y-73802288D01*
X107386664Y-73794720D01*
X107374841Y-73785952D01*
X107363934Y-73776066D01*
X107354048Y-73765159D01*
X107345280Y-73753336D01*
X107337712Y-73740710D01*
X107331418Y-73727403D01*
X107326459Y-73713543D01*
X107322882Y-73699264D01*
X107320722Y-73684703D01*
X107320000Y-73670000D01*
X107320000Y-73330000D01*
X107320722Y-73315297D01*
X107322882Y-73300736D01*
X107326459Y-73286457D01*
X107331418Y-73272597D01*
X107337712Y-73259290D01*
X107345280Y-73246664D01*
X107354048Y-73234841D01*
X107363934Y-73223934D01*
X107374841Y-73214048D01*
X107386664Y-73205280D01*
X107399290Y-73197712D01*
X107412597Y-73191418D01*
X107426457Y-73186459D01*
X107440736Y-73182882D01*
X107455297Y-73180722D01*
X107470000Y-73180000D01*
X107770000Y-73180000D01*
X107784703Y-73180722D01*
X107784703Y-73180722D01*
G37*
D11*
G04 #@! TD*
G04 #@! TO.P,R4,1*
G04 #@! TO.N,Net-(R4-Pad1)*
X107620000Y-73500000D03*
D10*
G04 #@! TO.N,Net-(R5-Pad1)*
G04 #@! TO.C,R5*
G36*
X108184703Y-72080722D02*
X108199264Y-72082882D01*
X108213543Y-72086459D01*
X108227403Y-72091418D01*
X108240710Y-72097712D01*
X108253336Y-72105280D01*
X108265159Y-72114048D01*
X108276066Y-72123934D01*
X108285952Y-72134841D01*
X108294720Y-72146664D01*
X108302288Y-72159290D01*
X108308582Y-72172597D01*
X108313541Y-72186457D01*
X108317118Y-72200736D01*
X108319278Y-72215297D01*
X108320000Y-72230000D01*
X108320000Y-72570000D01*
X108319278Y-72584703D01*
X108317118Y-72599264D01*
X108313541Y-72613543D01*
X108308582Y-72627403D01*
X108302288Y-72640710D01*
X108294720Y-72653336D01*
X108285952Y-72665159D01*
X108276066Y-72676066D01*
X108265159Y-72685952D01*
X108253336Y-72694720D01*
X108240710Y-72702288D01*
X108227403Y-72708582D01*
X108213543Y-72713541D01*
X108199264Y-72717118D01*
X108184703Y-72719278D01*
X108170000Y-72720000D01*
X107870000Y-72720000D01*
X107855297Y-72719278D01*
X107840736Y-72717118D01*
X107826457Y-72713541D01*
X107812597Y-72708582D01*
X107799290Y-72702288D01*
X107786664Y-72694720D01*
X107774841Y-72685952D01*
X107763934Y-72676066D01*
X107754048Y-72665159D01*
X107745280Y-72653336D01*
X107737712Y-72640710D01*
X107731418Y-72627403D01*
X107726459Y-72613543D01*
X107722882Y-72599264D01*
X107720722Y-72584703D01*
X107720000Y-72570000D01*
X107720000Y-72230000D01*
X107720722Y-72215297D01*
X107722882Y-72200736D01*
X107726459Y-72186457D01*
X107731418Y-72172597D01*
X107737712Y-72159290D01*
X107745280Y-72146664D01*
X107754048Y-72134841D01*
X107763934Y-72123934D01*
X107774841Y-72114048D01*
X107786664Y-72105280D01*
X107799290Y-72097712D01*
X107812597Y-72091418D01*
X107826457Y-72086459D01*
X107840736Y-72082882D01*
X107855297Y-72080722D01*
X107870000Y-72080000D01*
X108170000Y-72080000D01*
X108184703Y-72080722D01*
X108184703Y-72080722D01*
G37*
D11*
G04 #@! TD*
G04 #@! TO.P,R5,1*
G04 #@! TO.N,Net-(R5-Pad1)*
X108020000Y-72400000D03*
D10*
G04 #@! TO.N,Net-(R3-Pad1)*
G04 #@! TO.C,R5*
G36*
X109144703Y-72080722D02*
X109159264Y-72082882D01*
X109173543Y-72086459D01*
X109187403Y-72091418D01*
X109200710Y-72097712D01*
X109213336Y-72105280D01*
X109225159Y-72114048D01*
X109236066Y-72123934D01*
X109245952Y-72134841D01*
X109254720Y-72146664D01*
X109262288Y-72159290D01*
X109268582Y-72172597D01*
X109273541Y-72186457D01*
X109277118Y-72200736D01*
X109279278Y-72215297D01*
X109280000Y-72230000D01*
X109280000Y-72570000D01*
X109279278Y-72584703D01*
X109277118Y-72599264D01*
X109273541Y-72613543D01*
X109268582Y-72627403D01*
X109262288Y-72640710D01*
X109254720Y-72653336D01*
X109245952Y-72665159D01*
X109236066Y-72676066D01*
X109225159Y-72685952D01*
X109213336Y-72694720D01*
X109200710Y-72702288D01*
X109187403Y-72708582D01*
X109173543Y-72713541D01*
X109159264Y-72717118D01*
X109144703Y-72719278D01*
X109130000Y-72720000D01*
X108830000Y-72720000D01*
X108815297Y-72719278D01*
X108800736Y-72717118D01*
X108786457Y-72713541D01*
X108772597Y-72708582D01*
X108759290Y-72702288D01*
X108746664Y-72694720D01*
X108734841Y-72685952D01*
X108723934Y-72676066D01*
X108714048Y-72665159D01*
X108705280Y-72653336D01*
X108697712Y-72640710D01*
X108691418Y-72627403D01*
X108686459Y-72613543D01*
X108682882Y-72599264D01*
X108680722Y-72584703D01*
X108680000Y-72570000D01*
X108680000Y-72230000D01*
X108680722Y-72215297D01*
X108682882Y-72200736D01*
X108686459Y-72186457D01*
X108691418Y-72172597D01*
X108697712Y-72159290D01*
X108705280Y-72146664D01*
X108714048Y-72134841D01*
X108723934Y-72123934D01*
X108734841Y-72114048D01*
X108746664Y-72105280D01*
X108759290Y-72097712D01*
X108772597Y-72091418D01*
X108786457Y-72086459D01*
X108800736Y-72082882D01*
X108815297Y-72080722D01*
X108830000Y-72080000D01*
X109130000Y-72080000D01*
X109144703Y-72080722D01*
X109144703Y-72080722D01*
G37*
D11*
G04 #@! TD*
G04 #@! TO.P,R5,2*
G04 #@! TO.N,Net-(R3-Pad1)*
X108980000Y-72400000D03*
D10*
G04 #@! TO.N,GND*
G04 #@! TO.C,R6*
G36*
X106134703Y-73780722D02*
X106149264Y-73782882D01*
X106163543Y-73786459D01*
X106177403Y-73791418D01*
X106190710Y-73797712D01*
X106203336Y-73805280D01*
X106215159Y-73814048D01*
X106226066Y-73823934D01*
X106235952Y-73834841D01*
X106244720Y-73846664D01*
X106252288Y-73859290D01*
X106258582Y-73872597D01*
X106263541Y-73886457D01*
X106267118Y-73900736D01*
X106269278Y-73915297D01*
X106270000Y-73930000D01*
X106270000Y-74230000D01*
X106269278Y-74244703D01*
X106267118Y-74259264D01*
X106263541Y-74273543D01*
X106258582Y-74287403D01*
X106252288Y-74300710D01*
X106244720Y-74313336D01*
X106235952Y-74325159D01*
X106226066Y-74336066D01*
X106215159Y-74345952D01*
X106203336Y-74354720D01*
X106190710Y-74362288D01*
X106177403Y-74368582D01*
X106163543Y-74373541D01*
X106149264Y-74377118D01*
X106134703Y-74379278D01*
X106120000Y-74380000D01*
X105780000Y-74380000D01*
X105765297Y-74379278D01*
X105750736Y-74377118D01*
X105736457Y-74373541D01*
X105722597Y-74368582D01*
X105709290Y-74362288D01*
X105696664Y-74354720D01*
X105684841Y-74345952D01*
X105673934Y-74336066D01*
X105664048Y-74325159D01*
X105655280Y-74313336D01*
X105647712Y-74300710D01*
X105641418Y-74287403D01*
X105636459Y-74273543D01*
X105632882Y-74259264D01*
X105630722Y-74244703D01*
X105630000Y-74230000D01*
X105630000Y-73930000D01*
X105630722Y-73915297D01*
X105632882Y-73900736D01*
X105636459Y-73886457D01*
X105641418Y-73872597D01*
X105647712Y-73859290D01*
X105655280Y-73846664D01*
X105664048Y-73834841D01*
X105673934Y-73823934D01*
X105684841Y-73814048D01*
X105696664Y-73805280D01*
X105709290Y-73797712D01*
X105722597Y-73791418D01*
X105736457Y-73786459D01*
X105750736Y-73782882D01*
X105765297Y-73780722D01*
X105780000Y-73780000D01*
X106120000Y-73780000D01*
X106134703Y-73780722D01*
X106134703Y-73780722D01*
G37*
D11*
G04 #@! TD*
G04 #@! TO.P,R6,2*
G04 #@! TO.N,GND*
X105950000Y-74080000D03*
D10*
G04 #@! TO.N,Net-(R5-Pad1)*
G04 #@! TO.C,R6*
G36*
X106134703Y-72820722D02*
X106149264Y-72822882D01*
X106163543Y-72826459D01*
X106177403Y-72831418D01*
X106190710Y-72837712D01*
X106203336Y-72845280D01*
X106215159Y-72854048D01*
X106226066Y-72863934D01*
X106235952Y-72874841D01*
X106244720Y-72886664D01*
X106252288Y-72899290D01*
X106258582Y-72912597D01*
X106263541Y-72926457D01*
X106267118Y-72940736D01*
X106269278Y-72955297D01*
X106270000Y-72970000D01*
X106270000Y-73270000D01*
X106269278Y-73284703D01*
X106267118Y-73299264D01*
X106263541Y-73313543D01*
X106258582Y-73327403D01*
X106252288Y-73340710D01*
X106244720Y-73353336D01*
X106235952Y-73365159D01*
X106226066Y-73376066D01*
X106215159Y-73385952D01*
X106203336Y-73394720D01*
X106190710Y-73402288D01*
X106177403Y-73408582D01*
X106163543Y-73413541D01*
X106149264Y-73417118D01*
X106134703Y-73419278D01*
X106120000Y-73420000D01*
X105780000Y-73420000D01*
X105765297Y-73419278D01*
X105750736Y-73417118D01*
X105736457Y-73413541D01*
X105722597Y-73408582D01*
X105709290Y-73402288D01*
X105696664Y-73394720D01*
X105684841Y-73385952D01*
X105673934Y-73376066D01*
X105664048Y-73365159D01*
X105655280Y-73353336D01*
X105647712Y-73340710D01*
X105641418Y-73327403D01*
X105636459Y-73313543D01*
X105632882Y-73299264D01*
X105630722Y-73284703D01*
X105630000Y-73270000D01*
X105630000Y-72970000D01*
X105630722Y-72955297D01*
X105632882Y-72940736D01*
X105636459Y-72926457D01*
X105641418Y-72912597D01*
X105647712Y-72899290D01*
X105655280Y-72886664D01*
X105664048Y-72874841D01*
X105673934Y-72863934D01*
X105684841Y-72854048D01*
X105696664Y-72845280D01*
X105709290Y-72837712D01*
X105722597Y-72831418D01*
X105736457Y-72826459D01*
X105750736Y-72822882D01*
X105765297Y-72820722D01*
X105780000Y-72820000D01*
X106120000Y-72820000D01*
X106134703Y-72820722D01*
X106134703Y-72820722D01*
G37*
D11*
G04 #@! TD*
G04 #@! TO.P,R6,1*
G04 #@! TO.N,Net-(R5-Pad1)*
X105950000Y-73120000D03*
D10*
G04 #@! TO.N,Net-(R4-Pad1)*
G04 #@! TO.C,R7*
G36*
X107784703Y-74280722D02*
X107799264Y-74282882D01*
X107813543Y-74286459D01*
X107827403Y-74291418D01*
X107840710Y-74297712D01*
X107853336Y-74305280D01*
X107865159Y-74314048D01*
X107876066Y-74323934D01*
X107885952Y-74334841D01*
X107894720Y-74346664D01*
X107902288Y-74359290D01*
X107908582Y-74372597D01*
X107913541Y-74386457D01*
X107917118Y-74400736D01*
X107919278Y-74415297D01*
X107920000Y-74430000D01*
X107920000Y-74770000D01*
X107919278Y-74784703D01*
X107917118Y-74799264D01*
X107913541Y-74813543D01*
X107908582Y-74827403D01*
X107902288Y-74840710D01*
X107894720Y-74853336D01*
X107885952Y-74865159D01*
X107876066Y-74876066D01*
X107865159Y-74885952D01*
X107853336Y-74894720D01*
X107840710Y-74902288D01*
X107827403Y-74908582D01*
X107813543Y-74913541D01*
X107799264Y-74917118D01*
X107784703Y-74919278D01*
X107770000Y-74920000D01*
X107470000Y-74920000D01*
X107455297Y-74919278D01*
X107440736Y-74917118D01*
X107426457Y-74913541D01*
X107412597Y-74908582D01*
X107399290Y-74902288D01*
X107386664Y-74894720D01*
X107374841Y-74885952D01*
X107363934Y-74876066D01*
X107354048Y-74865159D01*
X107345280Y-74853336D01*
X107337712Y-74840710D01*
X107331418Y-74827403D01*
X107326459Y-74813543D01*
X107322882Y-74799264D01*
X107320722Y-74784703D01*
X107320000Y-74770000D01*
X107320000Y-74430000D01*
X107320722Y-74415297D01*
X107322882Y-74400736D01*
X107326459Y-74386457D01*
X107331418Y-74372597D01*
X107337712Y-74359290D01*
X107345280Y-74346664D01*
X107354048Y-74334841D01*
X107363934Y-74323934D01*
X107374841Y-74314048D01*
X107386664Y-74305280D01*
X107399290Y-74297712D01*
X107412597Y-74291418D01*
X107426457Y-74286459D01*
X107440736Y-74282882D01*
X107455297Y-74280722D01*
X107470000Y-74280000D01*
X107770000Y-74280000D01*
X107784703Y-74280722D01*
X107784703Y-74280722D01*
G37*
D11*
G04 #@! TD*
G04 #@! TO.P,R7,2*
G04 #@! TO.N,Net-(R4-Pad1)*
X107620000Y-74600000D03*
D10*
G04 #@! TO.N,Net-(R10-Pad2)*
G04 #@! TO.C,R7*
G36*
X108744703Y-74280722D02*
X108759264Y-74282882D01*
X108773543Y-74286459D01*
X108787403Y-74291418D01*
X108800710Y-74297712D01*
X108813336Y-74305280D01*
X108825159Y-74314048D01*
X108836066Y-74323934D01*
X108845952Y-74334841D01*
X108854720Y-74346664D01*
X108862288Y-74359290D01*
X108868582Y-74372597D01*
X108873541Y-74386457D01*
X108877118Y-74400736D01*
X108879278Y-74415297D01*
X108880000Y-74430000D01*
X108880000Y-74770000D01*
X108879278Y-74784703D01*
X108877118Y-74799264D01*
X108873541Y-74813543D01*
X108868582Y-74827403D01*
X108862288Y-74840710D01*
X108854720Y-74853336D01*
X108845952Y-74865159D01*
X108836066Y-74876066D01*
X108825159Y-74885952D01*
X108813336Y-74894720D01*
X108800710Y-74902288D01*
X108787403Y-74908582D01*
X108773543Y-74913541D01*
X108759264Y-74917118D01*
X108744703Y-74919278D01*
X108730000Y-74920000D01*
X108430000Y-74920000D01*
X108415297Y-74919278D01*
X108400736Y-74917118D01*
X108386457Y-74913541D01*
X108372597Y-74908582D01*
X108359290Y-74902288D01*
X108346664Y-74894720D01*
X108334841Y-74885952D01*
X108323934Y-74876066D01*
X108314048Y-74865159D01*
X108305280Y-74853336D01*
X108297712Y-74840710D01*
X108291418Y-74827403D01*
X108286459Y-74813543D01*
X108282882Y-74799264D01*
X108280722Y-74784703D01*
X108280000Y-74770000D01*
X108280000Y-74430000D01*
X108280722Y-74415297D01*
X108282882Y-74400736D01*
X108286459Y-74386457D01*
X108291418Y-74372597D01*
X108297712Y-74359290D01*
X108305280Y-74346664D01*
X108314048Y-74334841D01*
X108323934Y-74323934D01*
X108334841Y-74314048D01*
X108346664Y-74305280D01*
X108359290Y-74297712D01*
X108372597Y-74291418D01*
X108386457Y-74286459D01*
X108400736Y-74282882D01*
X108415297Y-74280722D01*
X108430000Y-74280000D01*
X108730000Y-74280000D01*
X108744703Y-74280722D01*
X108744703Y-74280722D01*
G37*
D11*
G04 #@! TD*
G04 #@! TO.P,R7,1*
G04 #@! TO.N,Net-(R10-Pad2)*
X108580000Y-74600000D03*
D10*
G04 #@! TO.N,VCC*
G04 #@! TO.C,R8*
G36*
X110509703Y-74155722D02*
X110524264Y-74157882D01*
X110538543Y-74161459D01*
X110552403Y-74166418D01*
X110565710Y-74172712D01*
X110578336Y-74180280D01*
X110590159Y-74189048D01*
X110601066Y-74198934D01*
X110610952Y-74209841D01*
X110619720Y-74221664D01*
X110627288Y-74234290D01*
X110633582Y-74247597D01*
X110638541Y-74261457D01*
X110642118Y-74275736D01*
X110644278Y-74290297D01*
X110645000Y-74305000D01*
X110645000Y-74605000D01*
X110644278Y-74619703D01*
X110642118Y-74634264D01*
X110638541Y-74648543D01*
X110633582Y-74662403D01*
X110627288Y-74675710D01*
X110619720Y-74688336D01*
X110610952Y-74700159D01*
X110601066Y-74711066D01*
X110590159Y-74720952D01*
X110578336Y-74729720D01*
X110565710Y-74737288D01*
X110552403Y-74743582D01*
X110538543Y-74748541D01*
X110524264Y-74752118D01*
X110509703Y-74754278D01*
X110495000Y-74755000D01*
X110155000Y-74755000D01*
X110140297Y-74754278D01*
X110125736Y-74752118D01*
X110111457Y-74748541D01*
X110097597Y-74743582D01*
X110084290Y-74737288D01*
X110071664Y-74729720D01*
X110059841Y-74720952D01*
X110048934Y-74711066D01*
X110039048Y-74700159D01*
X110030280Y-74688336D01*
X110022712Y-74675710D01*
X110016418Y-74662403D01*
X110011459Y-74648543D01*
X110007882Y-74634264D01*
X110005722Y-74619703D01*
X110005000Y-74605000D01*
X110005000Y-74305000D01*
X110005722Y-74290297D01*
X110007882Y-74275736D01*
X110011459Y-74261457D01*
X110016418Y-74247597D01*
X110022712Y-74234290D01*
X110030280Y-74221664D01*
X110039048Y-74209841D01*
X110048934Y-74198934D01*
X110059841Y-74189048D01*
X110071664Y-74180280D01*
X110084290Y-74172712D01*
X110097597Y-74166418D01*
X110111457Y-74161459D01*
X110125736Y-74157882D01*
X110140297Y-74155722D01*
X110155000Y-74155000D01*
X110495000Y-74155000D01*
X110509703Y-74155722D01*
X110509703Y-74155722D01*
G37*
D11*
G04 #@! TD*
G04 #@! TO.P,R8,2*
G04 #@! TO.N,VCC*
X110325000Y-74455000D03*
D10*
G04 #@! TO.N,Net-(R8-Pad1)*
G04 #@! TO.C,R8*
G36*
X110509703Y-73195722D02*
X110524264Y-73197882D01*
X110538543Y-73201459D01*
X110552403Y-73206418D01*
X110565710Y-73212712D01*
X110578336Y-73220280D01*
X110590159Y-73229048D01*
X110601066Y-73238934D01*
X110610952Y-73249841D01*
X110619720Y-73261664D01*
X110627288Y-73274290D01*
X110633582Y-73287597D01*
X110638541Y-73301457D01*
X110642118Y-73315736D01*
X110644278Y-73330297D01*
X110645000Y-73345000D01*
X110645000Y-73645000D01*
X110644278Y-73659703D01*
X110642118Y-73674264D01*
X110638541Y-73688543D01*
X110633582Y-73702403D01*
X110627288Y-73715710D01*
X110619720Y-73728336D01*
X110610952Y-73740159D01*
X110601066Y-73751066D01*
X110590159Y-73760952D01*
X110578336Y-73769720D01*
X110565710Y-73777288D01*
X110552403Y-73783582D01*
X110538543Y-73788541D01*
X110524264Y-73792118D01*
X110509703Y-73794278D01*
X110495000Y-73795000D01*
X110155000Y-73795000D01*
X110140297Y-73794278D01*
X110125736Y-73792118D01*
X110111457Y-73788541D01*
X110097597Y-73783582D01*
X110084290Y-73777288D01*
X110071664Y-73769720D01*
X110059841Y-73760952D01*
X110048934Y-73751066D01*
X110039048Y-73740159D01*
X110030280Y-73728336D01*
X110022712Y-73715710D01*
X110016418Y-73702403D01*
X110011459Y-73688543D01*
X110007882Y-73674264D01*
X110005722Y-73659703D01*
X110005000Y-73645000D01*
X110005000Y-73345000D01*
X110005722Y-73330297D01*
X110007882Y-73315736D01*
X110011459Y-73301457D01*
X110016418Y-73287597D01*
X110022712Y-73274290D01*
X110030280Y-73261664D01*
X110039048Y-73249841D01*
X110048934Y-73238934D01*
X110059841Y-73229048D01*
X110071664Y-73220280D01*
X110084290Y-73212712D01*
X110097597Y-73206418D01*
X110111457Y-73201459D01*
X110125736Y-73197882D01*
X110140297Y-73195722D01*
X110155000Y-73195000D01*
X110495000Y-73195000D01*
X110509703Y-73195722D01*
X110509703Y-73195722D01*
G37*
D11*
G04 #@! TD*
G04 #@! TO.P,R8,1*
G04 #@! TO.N,Net-(R8-Pad1)*
X110325000Y-73495000D03*
D10*
G04 #@! TO.N,GND*
G04 #@! TO.C,R9*
G36*
X111534703Y-74155722D02*
X111549264Y-74157882D01*
X111563543Y-74161459D01*
X111577403Y-74166418D01*
X111590710Y-74172712D01*
X111603336Y-74180280D01*
X111615159Y-74189048D01*
X111626066Y-74198934D01*
X111635952Y-74209841D01*
X111644720Y-74221664D01*
X111652288Y-74234290D01*
X111658582Y-74247597D01*
X111663541Y-74261457D01*
X111667118Y-74275736D01*
X111669278Y-74290297D01*
X111670000Y-74305000D01*
X111670000Y-74605000D01*
X111669278Y-74619703D01*
X111667118Y-74634264D01*
X111663541Y-74648543D01*
X111658582Y-74662403D01*
X111652288Y-74675710D01*
X111644720Y-74688336D01*
X111635952Y-74700159D01*
X111626066Y-74711066D01*
X111615159Y-74720952D01*
X111603336Y-74729720D01*
X111590710Y-74737288D01*
X111577403Y-74743582D01*
X111563543Y-74748541D01*
X111549264Y-74752118D01*
X111534703Y-74754278D01*
X111520000Y-74755000D01*
X111180000Y-74755000D01*
X111165297Y-74754278D01*
X111150736Y-74752118D01*
X111136457Y-74748541D01*
X111122597Y-74743582D01*
X111109290Y-74737288D01*
X111096664Y-74729720D01*
X111084841Y-74720952D01*
X111073934Y-74711066D01*
X111064048Y-74700159D01*
X111055280Y-74688336D01*
X111047712Y-74675710D01*
X111041418Y-74662403D01*
X111036459Y-74648543D01*
X111032882Y-74634264D01*
X111030722Y-74619703D01*
X111030000Y-74605000D01*
X111030000Y-74305000D01*
X111030722Y-74290297D01*
X111032882Y-74275736D01*
X111036459Y-74261457D01*
X111041418Y-74247597D01*
X111047712Y-74234290D01*
X111055280Y-74221664D01*
X111064048Y-74209841D01*
X111073934Y-74198934D01*
X111084841Y-74189048D01*
X111096664Y-74180280D01*
X111109290Y-74172712D01*
X111122597Y-74166418D01*
X111136457Y-74161459D01*
X111150736Y-74157882D01*
X111165297Y-74155722D01*
X111180000Y-74155000D01*
X111520000Y-74155000D01*
X111534703Y-74155722D01*
X111534703Y-74155722D01*
G37*
D11*
G04 #@! TD*
G04 #@! TO.P,R9,1*
G04 #@! TO.N,GND*
X111350000Y-74455000D03*
D10*
G04 #@! TO.N,Net-(R8-Pad1)*
G04 #@! TO.C,R9*
G36*
X111534703Y-73195722D02*
X111549264Y-73197882D01*
X111563543Y-73201459D01*
X111577403Y-73206418D01*
X111590710Y-73212712D01*
X111603336Y-73220280D01*
X111615159Y-73229048D01*
X111626066Y-73238934D01*
X111635952Y-73249841D01*
X111644720Y-73261664D01*
X111652288Y-73274290D01*
X111658582Y-73287597D01*
X111663541Y-73301457D01*
X111667118Y-73315736D01*
X111669278Y-73330297D01*
X111670000Y-73345000D01*
X111670000Y-73645000D01*
X111669278Y-73659703D01*
X111667118Y-73674264D01*
X111663541Y-73688543D01*
X111658582Y-73702403D01*
X111652288Y-73715710D01*
X111644720Y-73728336D01*
X111635952Y-73740159D01*
X111626066Y-73751066D01*
X111615159Y-73760952D01*
X111603336Y-73769720D01*
X111590710Y-73777288D01*
X111577403Y-73783582D01*
X111563543Y-73788541D01*
X111549264Y-73792118D01*
X111534703Y-73794278D01*
X111520000Y-73795000D01*
X111180000Y-73795000D01*
X111165297Y-73794278D01*
X111150736Y-73792118D01*
X111136457Y-73788541D01*
X111122597Y-73783582D01*
X111109290Y-73777288D01*
X111096664Y-73769720D01*
X111084841Y-73760952D01*
X111073934Y-73751066D01*
X111064048Y-73740159D01*
X111055280Y-73728336D01*
X111047712Y-73715710D01*
X111041418Y-73702403D01*
X111036459Y-73688543D01*
X111032882Y-73674264D01*
X111030722Y-73659703D01*
X111030000Y-73645000D01*
X111030000Y-73345000D01*
X111030722Y-73330297D01*
X111032882Y-73315736D01*
X111036459Y-73301457D01*
X111041418Y-73287597D01*
X111047712Y-73274290D01*
X111055280Y-73261664D01*
X111064048Y-73249841D01*
X111073934Y-73238934D01*
X111084841Y-73229048D01*
X111096664Y-73220280D01*
X111109290Y-73212712D01*
X111122597Y-73206418D01*
X111136457Y-73201459D01*
X111150736Y-73197882D01*
X111165297Y-73195722D01*
X111180000Y-73195000D01*
X111520000Y-73195000D01*
X111534703Y-73195722D01*
X111534703Y-73195722D01*
G37*
D11*
G04 #@! TD*
G04 #@! TO.P,R9,2*
G04 #@! TO.N,Net-(R8-Pad1)*
X111350000Y-73495000D03*
D13*
G04 #@! TO.P,TP1,1*
G04 #@! TO.N,Net-(TP1-Pad1)*
X110550000Y-69375000D03*
G04 #@! TD*
G04 #@! TO.P,TP2,1*
G04 #@! TO.N,Net-(TP2-Pad1)*
X106150000Y-69375000D03*
G04 #@! TD*
G04 #@! TO.P,TP3,1*
G04 #@! TO.N,Net-(R8-Pad1)*
X105700000Y-77250000D03*
G04 #@! TD*
G04 #@! TO.P,TP5,1*
G04 #@! TO.N,VCC*
X109975000Y-77250000D03*
G04 #@! TD*
G04 #@! TO.P,TP6,1*
G04 #@! TO.N,GND*
X111625000Y-77250000D03*
G04 #@! TD*
G04 #@! TO.P,TP7,1*
G04 #@! TO.N,/vout*
X107400000Y-77250000D03*
G04 #@! TD*
D14*
G04 #@! TO.N,VCC*
X109450000Y-74800000D03*
G04 #@! TO.N,GND*
X112525000Y-72525000D03*
X112525000Y-75075000D03*
X106075000Y-75950000D03*
G04 #@! TO.N,Net-(R1-Pad1)*
X109900000Y-71380000D03*
G04 #@! TO.N,Net-(R1-Pad2)*
X107000000Y-71380000D03*
G04 #@! TO.N,Net-(R2-Pad2)*
X110025000Y-70550000D03*
G04 #@! TO.N,Net-(R3-Pad1)*
X109900000Y-72300000D03*
X107000000Y-70550000D03*
G04 #@! TO.N,Net-(R4-Pad1)*
X106800000Y-73700000D03*
G04 #@! TO.N,Net-(R5-Pad1)*
X106900000Y-72700000D03*
G04 #@! TO.N,Net-(R8-Pad1)*
X109500000Y-73750000D03*
X105300000Y-75075000D03*
G04 #@! TO.N,Net-(TP1-Pad1)*
X112549994Y-71725000D03*
G04 #@! TO.N,Net-(TP2-Pad1)*
X104150000Y-71725000D03*
G04 #@! TO.N,/vout*
X108674994Y-77225000D03*
G04 #@! TO.N,Net-(R10-Pad2)*
X106809414Y-74661434D03*
G04 #@! TD*
D15*
G04 #@! TO.N,VCC*
X109962500Y-74787500D02*
X110300000Y-74450000D01*
X109962500Y-76050000D02*
X109962500Y-75117500D01*
X109962500Y-74800000D02*
X109962500Y-75117500D01*
X109450000Y-74800000D02*
X109962500Y-74800000D01*
X109975000Y-75737500D02*
X109962500Y-75725000D01*
X109975000Y-77250000D02*
X109975000Y-75737500D01*
G04 #@! TO.N,GND*
X112525000Y-72525000D02*
X112525000Y-75075000D01*
X112512500Y-75075000D02*
X112525000Y-75075000D01*
X111537500Y-76050000D02*
X112512500Y-75075000D01*
X111350000Y-74475000D02*
X111350000Y-74455000D01*
X111537500Y-76050000D02*
X111537500Y-74662500D01*
X111537500Y-74662500D02*
X111350000Y-74475000D01*
X105950000Y-74080000D02*
X105950000Y-75825000D01*
X105950000Y-75825000D02*
X106075000Y-75950000D01*
X111625000Y-75812500D02*
X111537500Y-75725000D01*
X111625000Y-77250000D02*
X111625000Y-75812500D01*
G04 #@! TO.N,Net-(R1-Pad1)*
X110900000Y-71380000D02*
X109900000Y-71380000D01*
X109060000Y-71380000D02*
X108980000Y-71300000D01*
X109900000Y-71380000D02*
X109060000Y-71380000D01*
G04 #@! TO.N,Net-(R1-Pad2)*
X105800000Y-71380000D02*
X107000000Y-71380000D01*
X107000000Y-71380000D02*
X107940000Y-71380000D01*
X107940000Y-71380000D02*
X108020000Y-71300000D01*
G04 #@! TO.N,Net-(R2-Pad2)*
X110880000Y-70400000D02*
X110900000Y-70420000D01*
X110000000Y-70400000D02*
X110880000Y-70400000D01*
X108925000Y-73500000D02*
X108580000Y-73500000D01*
X111800000Y-70750000D02*
X111800000Y-71800000D01*
X111470000Y-70420000D02*
X111800000Y-70750000D01*
X109575000Y-72850000D02*
X108925000Y-73500000D01*
X110900000Y-70420000D02*
X111470000Y-70420000D01*
X111800000Y-71800000D02*
X110750000Y-72850000D01*
X110750000Y-72850000D02*
X109575000Y-72850000D01*
G04 #@! TO.N,Net-(R3-Pad1)*
X109080000Y-72300000D02*
X108980000Y-72400000D01*
X109900000Y-72300000D02*
X109080000Y-72300000D01*
X105820000Y-70400000D02*
X105800000Y-70420000D01*
X107000000Y-70400000D02*
X105820000Y-70400000D01*
G04 #@! TO.N,Net-(R4-Pad1)*
X107000000Y-73500000D02*
X106800000Y-73700000D01*
X107600000Y-73500000D02*
X107000000Y-73500000D01*
X107600000Y-74600000D02*
X107600000Y-73500000D01*
G04 #@! TO.N,Net-(R5-Pad1)*
X108020000Y-72400000D02*
X107200000Y-72400000D01*
X107200000Y-72400000D02*
X106900000Y-72700000D01*
X106600000Y-73000000D02*
X106900000Y-72700000D01*
X105980000Y-73000000D02*
X106600000Y-73000000D01*
G04 #@! TO.N,Net-(R8-Pad1)*
X109550000Y-73800000D02*
X109500000Y-73750000D01*
X105300000Y-75434210D02*
X105300000Y-75075000D01*
X105300000Y-77325000D02*
X105300000Y-75434210D01*
X109755000Y-73495000D02*
X109500000Y-73750000D01*
X111350000Y-73495000D02*
X109755000Y-73495000D01*
G04 #@! TO.N,Net-(TP1-Pad1)*
X112549994Y-71365790D02*
X112549994Y-71725000D01*
X112549994Y-70597594D02*
X112549994Y-71365790D01*
X111202400Y-69250000D02*
X112549994Y-70597594D01*
X110550000Y-69250000D02*
X111202400Y-69250000D01*
G04 #@! TO.N,Net-(TP2-Pad1)*
X104150000Y-71365790D02*
X104150000Y-71725000D01*
X106150000Y-69250000D02*
X105497600Y-69250000D01*
X104150000Y-70597600D02*
X104150000Y-71365790D01*
X105497600Y-69250000D02*
X104150000Y-70597600D01*
G04 #@! TO.N,/vout*
X108580000Y-77130006D02*
X108674994Y-77225000D01*
X108580000Y-76225000D02*
X108580000Y-77130006D01*
X108649994Y-77250000D02*
X108674994Y-77225000D01*
X107400000Y-77250000D02*
X108649994Y-77250000D01*
X108580000Y-76225000D02*
X108580000Y-75800000D01*
G04 #@! TO.N,Net-(R10-Pad2)*
X108580000Y-74600000D02*
X108580000Y-74645000D01*
X108580000Y-74645000D02*
X108025000Y-75200000D01*
X107625000Y-75375000D02*
X107625000Y-75200000D01*
X107620000Y-75380000D02*
X107625000Y-75375000D01*
X107620000Y-75800000D02*
X107620000Y-75380000D01*
X108025000Y-75200000D02*
X107625000Y-75200000D01*
X107063413Y-74915433D02*
X106809414Y-74661434D01*
X107625000Y-75200000D02*
X107347980Y-75200000D01*
X107347980Y-75200000D02*
X107063413Y-74915433D01*
G04 #@! TD*
M02*
